<?xml version="1.0" encoding="utf-8" standalone="no"?>
<!DOCTYPE svg PUBLIC "-//W3C//DTD SVG 1.1//EN"
  "http://www.w3.org/Graphics/SVG/1.1/DTD/svg11.dtd">
<svg xmlns:xlink="http://www.w3.org/1999/xlink" width="1152pt" height="576pt" viewBox="0 0 1152 576" xmlns="http://www.w3.org/2000/svg" version="1.1">
 <metadata>
  <rdf:RDF xmlns:dc="http://purl.org/dc/elements/1.1/" xmlns:cc="http://creativecommons.org/ns#" xmlns:rdf="http://www.w3.org/1999/02/22-rdf-syntax-ns#">
   <cc:Work>
    <dc:type rdf:resource="http://purl.org/dc/dcmitype/StillImage"/>
    <dc:date>2022-06-14T11:32:09.338981</dc:date>
    <dc:format>image/svg+xml</dc:format>
    <dc:creator>
     <cc:Agent>
      <dc:title>Matplotlib v3.5.1, https://matplotlib.org/</dc:title>
     </cc:Agent>
    </dc:creator>
   </cc:Work>
  </rdf:RDF>
 </metadata>
 <defs>
  <style type="text/css">*{stroke-linejoin: round; stroke-linecap: butt}</style>
 </defs>
 <g id="figure_1">
  <g id="patch_1">
   <path d="M 0 576 
L 1152 576 
L 1152 0 
L 0 0 
z
" style="fill: #ffffff"/>
  </g>
  <g id="axes_1">
   <g id="patch_2">
    <path d="M 144 504 
L 1036.8 504 
L 1036.8 69.12 
L 144 69.12 
z
" style="fill: #eaeaf2"/>
   </g>
   <g id="matplotlib.axis_1">
    <g id="xtick_1">
     <g id="line2d_1">
      <path d="M 168.66738 504 
L 168.66738 69.12 
" clip-path="url(#pfb33a64bf6)" style="fill: none; stroke: #ffffff; stroke-width: 0.8; stroke-linecap: round"/>
     </g>
     <g id="text_1">
      <!-- 0 -->
      <g style="fill: #262626" transform="translate(165.886911 518.157812)scale(0.1 -0.1)">
       <defs>
        <path id="ArialMT-30" d="M 266 2259 
Q 266 3072 433 3567 
Q 600 4063 929 4331 
Q 1259 4600 1759 4600 
Q 2128 4600 2406 4451 
Q 2684 4303 2865 4023 
Q 3047 3744 3150 3342 
Q 3253 2941 3253 2259 
Q 3253 1453 3087 958 
Q 2922 463 2592 192 
Q 2263 -78 1759 -78 
Q 1097 -78 719 397 
Q 266 969 266 2259 
z
M 844 2259 
Q 844 1131 1108 757 
Q 1372 384 1759 384 
Q 2147 384 2411 759 
Q 2675 1134 2675 2259 
Q 2675 3391 2411 3762 
Q 2147 4134 1753 4134 
Q 1366 4134 1134 3806 
Q 844 3388 844 2259 
z
" transform="scale(0.015625)"/>
       </defs>
       <use xlink:href="#ArialMT-30"/>
      </g>
     </g>
    </g>
    <g id="xtick_2">
     <g id="line2d_2">
      <path d="M 327.811765 504 
L 327.811765 69.12 
" clip-path="url(#pfb33a64bf6)" style="fill: none; stroke: #ffffff; stroke-width: 0.8; stroke-linecap: round"/>
     </g>
     <g id="text_2">
      <!-- 10 -->
      <g style="fill: #262626" transform="translate(322.250827 518.157812)scale(0.1 -0.1)">
       <defs>
        <path id="ArialMT-31" d="M 2384 0 
L 1822 0 
L 1822 3584 
Q 1619 3391 1289 3197 
Q 959 3003 697 2906 
L 697 3450 
Q 1169 3672 1522 3987 
Q 1875 4303 2022 4600 
L 2384 4600 
L 2384 0 
z
" transform="scale(0.015625)"/>
       </defs>
       <use xlink:href="#ArialMT-31"/>
       <use xlink:href="#ArialMT-30" x="55.615234"/>
      </g>
     </g>
    </g>
    <g id="xtick_3">
     <g id="line2d_3">
      <path d="M 486.95615 504 
L 486.95615 69.12 
" clip-path="url(#pfb33a64bf6)" style="fill: none; stroke: #ffffff; stroke-width: 0.8; stroke-linecap: round"/>
     </g>
     <g id="text_3">
      <!-- 20 -->
      <g style="fill: #262626" transform="translate(481.395212 518.157812)scale(0.1 -0.1)">
       <defs>
        <path id="ArialMT-32" d="M 3222 541 
L 3222 0 
L 194 0 
Q 188 203 259 391 
Q 375 700 629 1000 
Q 884 1300 1366 1694 
Q 2113 2306 2375 2664 
Q 2638 3022 2638 3341 
Q 2638 3675 2398 3904 
Q 2159 4134 1775 4134 
Q 1369 4134 1125 3890 
Q 881 3647 878 3216 
L 300 3275 
Q 359 3922 746 4261 
Q 1134 4600 1788 4600 
Q 2447 4600 2831 4234 
Q 3216 3869 3216 3328 
Q 3216 3053 3103 2787 
Q 2991 2522 2730 2228 
Q 2469 1934 1863 1422 
Q 1356 997 1212 845 
Q 1069 694 975 541 
L 3222 541 
z
" transform="scale(0.015625)"/>
       </defs>
       <use xlink:href="#ArialMT-32"/>
       <use xlink:href="#ArialMT-30" x="55.615234"/>
      </g>
     </g>
    </g>
    <g id="xtick_4">
     <g id="line2d_4">
      <path d="M 646.100535 504 
L 646.100535 69.12 
" clip-path="url(#pfb33a64bf6)" style="fill: none; stroke: #ffffff; stroke-width: 0.8; stroke-linecap: round"/>
     </g>
     <g id="text_4">
      <!-- 30 -->
      <g style="fill: #262626" transform="translate(640.539597 518.157812)scale(0.1 -0.1)">
       <defs>
        <path id="ArialMT-33" d="M 269 1209 
L 831 1284 
Q 928 806 1161 595 
Q 1394 384 1728 384 
Q 2125 384 2398 659 
Q 2672 934 2672 1341 
Q 2672 1728 2419 1979 
Q 2166 2231 1775 2231 
Q 1616 2231 1378 2169 
L 1441 2663 
Q 1497 2656 1531 2656 
Q 1891 2656 2178 2843 
Q 2466 3031 2466 3422 
Q 2466 3731 2256 3934 
Q 2047 4138 1716 4138 
Q 1388 4138 1169 3931 
Q 950 3725 888 3313 
L 325 3413 
Q 428 3978 793 4289 
Q 1159 4600 1703 4600 
Q 2078 4600 2393 4439 
Q 2709 4278 2876 4000 
Q 3044 3722 3044 3409 
Q 3044 3113 2884 2869 
Q 2725 2625 2413 2481 
Q 2819 2388 3044 2092 
Q 3269 1797 3269 1353 
Q 3269 753 2831 336 
Q 2394 -81 1725 -81 
Q 1122 -81 723 278 
Q 325 638 269 1209 
z
" transform="scale(0.015625)"/>
       </defs>
       <use xlink:href="#ArialMT-33"/>
       <use xlink:href="#ArialMT-30" x="55.615234"/>
      </g>
     </g>
    </g>
    <g id="xtick_5">
     <g id="line2d_5">
      <path d="M 805.24492 504 
L 805.24492 69.12 
" clip-path="url(#pfb33a64bf6)" style="fill: none; stroke: #ffffff; stroke-width: 0.8; stroke-linecap: round"/>
     </g>
     <g id="text_5">
      <!-- 40 -->
      <g style="fill: #262626" transform="translate(799.683982 518.157812)scale(0.1 -0.1)">
       <defs>
        <path id="ArialMT-34" d="M 2069 0 
L 2069 1097 
L 81 1097 
L 81 1613 
L 2172 4581 
L 2631 4581 
L 2631 1613 
L 3250 1613 
L 3250 1097 
L 2631 1097 
L 2631 0 
L 2069 0 
z
M 2069 1613 
L 2069 3678 
L 634 1613 
L 2069 1613 
z
" transform="scale(0.015625)"/>
       </defs>
       <use xlink:href="#ArialMT-34"/>
       <use xlink:href="#ArialMT-30" x="55.615234"/>
      </g>
     </g>
    </g>
    <g id="xtick_6">
     <g id="line2d_6">
      <path d="M 964.389305 504 
L 964.389305 69.12 
" clip-path="url(#pfb33a64bf6)" style="fill: none; stroke: #ffffff; stroke-width: 0.8; stroke-linecap: round"/>
     </g>
     <g id="text_6">
      <!-- 50 -->
      <g style="fill: #262626" transform="translate(958.828367 518.157812)scale(0.1 -0.1)">
       <defs>
        <path id="ArialMT-35" d="M 266 1200 
L 856 1250 
Q 922 819 1161 601 
Q 1400 384 1738 384 
Q 2144 384 2425 690 
Q 2706 997 2706 1503 
Q 2706 1984 2436 2262 
Q 2166 2541 1728 2541 
Q 1456 2541 1237 2417 
Q 1019 2294 894 2097 
L 366 2166 
L 809 4519 
L 3088 4519 
L 3088 3981 
L 1259 3981 
L 1013 2750 
Q 1425 3038 1878 3038 
Q 2478 3038 2890 2622 
Q 3303 2206 3303 1553 
Q 3303 931 2941 478 
Q 2500 -78 1738 -78 
Q 1113 -78 717 272 
Q 322 622 266 1200 
z
" transform="scale(0.015625)"/>
       </defs>
       <use xlink:href="#ArialMT-35"/>
       <use xlink:href="#ArialMT-30" x="55.615234"/>
      </g>
     </g>
    </g>
    <g id="text_7">
     <!-- Week of the year -->
     <g style="fill: #262626" transform="translate(552.694531 531.425)scale(0.1 -0.1)">
      <defs>
       <path id="ArialMT-57" d="M 1294 0 
L 78 4581 
L 700 4581 
L 1397 1578 
Q 1509 1106 1591 641 
Q 1766 1375 1797 1488 
L 2669 4581 
L 3400 4581 
L 4056 2263 
Q 4303 1400 4413 641 
Q 4500 1075 4641 1638 
L 5359 4581 
L 5969 4581 
L 4713 0 
L 4128 0 
L 3163 3491 
Q 3041 3928 3019 4028 
Q 2947 3713 2884 3491 
L 1913 0 
L 1294 0 
z
" transform="scale(0.015625)"/>
       <path id="ArialMT-65" d="M 2694 1069 
L 3275 997 
Q 3138 488 2766 206 
Q 2394 -75 1816 -75 
Q 1088 -75 661 373 
Q 234 822 234 1631 
Q 234 2469 665 2931 
Q 1097 3394 1784 3394 
Q 2450 3394 2872 2941 
Q 3294 2488 3294 1666 
Q 3294 1616 3291 1516 
L 816 1516 
Q 847 969 1125 678 
Q 1403 388 1819 388 
Q 2128 388 2347 550 
Q 2566 713 2694 1069 
z
M 847 1978 
L 2700 1978 
Q 2663 2397 2488 2606 
Q 2219 2931 1791 2931 
Q 1403 2931 1139 2672 
Q 875 2413 847 1978 
z
" transform="scale(0.015625)"/>
       <path id="ArialMT-6b" d="M 425 0 
L 425 4581 
L 988 4581 
L 988 1969 
L 2319 3319 
L 3047 3319 
L 1778 2088 
L 3175 0 
L 2481 0 
L 1384 1697 
L 988 1316 
L 988 0 
L 425 0 
z
" transform="scale(0.015625)"/>
       <path id="ArialMT-20" transform="scale(0.015625)"/>
       <path id="ArialMT-6f" d="M 213 1659 
Q 213 2581 725 3025 
Q 1153 3394 1769 3394 
Q 2453 3394 2887 2945 
Q 3322 2497 3322 1706 
Q 3322 1066 3130 698 
Q 2938 331 2570 128 
Q 2203 -75 1769 -75 
Q 1072 -75 642 372 
Q 213 819 213 1659 
z
M 791 1659 
Q 791 1022 1069 705 
Q 1347 388 1769 388 
Q 2188 388 2466 706 
Q 2744 1025 2744 1678 
Q 2744 2294 2464 2611 
Q 2184 2928 1769 2928 
Q 1347 2928 1069 2612 
Q 791 2297 791 1659 
z
" transform="scale(0.015625)"/>
       <path id="ArialMT-66" d="M 556 0 
L 556 2881 
L 59 2881 
L 59 3319 
L 556 3319 
L 556 3672 
Q 556 4006 616 4169 
Q 697 4388 901 4523 
Q 1106 4659 1475 4659 
Q 1713 4659 2000 4603 
L 1916 4113 
Q 1741 4144 1584 4144 
Q 1328 4144 1222 4034 
Q 1116 3925 1116 3625 
L 1116 3319 
L 1763 3319 
L 1763 2881 
L 1116 2881 
L 1116 0 
L 556 0 
z
" transform="scale(0.015625)"/>
       <path id="ArialMT-74" d="M 1650 503 
L 1731 6 
Q 1494 -44 1306 -44 
Q 1000 -44 831 53 
Q 663 150 594 308 
Q 525 466 525 972 
L 525 2881 
L 113 2881 
L 113 3319 
L 525 3319 
L 525 4141 
L 1084 4478 
L 1084 3319 
L 1650 3319 
L 1650 2881 
L 1084 2881 
L 1084 941 
Q 1084 700 1114 631 
Q 1144 563 1211 522 
Q 1278 481 1403 481 
Q 1497 481 1650 503 
z
" transform="scale(0.015625)"/>
       <path id="ArialMT-68" d="M 422 0 
L 422 4581 
L 984 4581 
L 984 2938 
Q 1378 3394 1978 3394 
Q 2347 3394 2619 3248 
Q 2891 3103 3008 2847 
Q 3125 2591 3125 2103 
L 3125 0 
L 2563 0 
L 2563 2103 
Q 2563 2525 2380 2717 
Q 2197 2909 1863 2909 
Q 1613 2909 1392 2779 
Q 1172 2650 1078 2428 
Q 984 2206 984 1816 
L 984 0 
L 422 0 
z
" transform="scale(0.015625)"/>
       <path id="ArialMT-79" d="M 397 -1278 
L 334 -750 
Q 519 -800 656 -800 
Q 844 -800 956 -737 
Q 1069 -675 1141 -563 
Q 1194 -478 1313 -144 
Q 1328 -97 1363 -6 
L 103 3319 
L 709 3319 
L 1400 1397 
Q 1534 1031 1641 628 
Q 1738 1016 1872 1384 
L 2581 3319 
L 3144 3319 
L 1881 -56 
Q 1678 -603 1566 -809 
Q 1416 -1088 1222 -1217 
Q 1028 -1347 759 -1347 
Q 597 -1347 397 -1278 
z
" transform="scale(0.015625)"/>
       <path id="ArialMT-61" d="M 2588 409 
Q 2275 144 1986 34 
Q 1697 -75 1366 -75 
Q 819 -75 525 192 
Q 231 459 231 875 
Q 231 1119 342 1320 
Q 453 1522 633 1644 
Q 813 1766 1038 1828 
Q 1203 1872 1538 1913 
Q 2219 1994 2541 2106 
Q 2544 2222 2544 2253 
Q 2544 2597 2384 2738 
Q 2169 2928 1744 2928 
Q 1347 2928 1158 2789 
Q 969 2650 878 2297 
L 328 2372 
Q 403 2725 575 2942 
Q 747 3159 1072 3276 
Q 1397 3394 1825 3394 
Q 2250 3394 2515 3294 
Q 2781 3194 2906 3042 
Q 3031 2891 3081 2659 
Q 3109 2516 3109 2141 
L 3109 1391 
Q 3109 606 3145 398 
Q 3181 191 3288 0 
L 2700 0 
Q 2613 175 2588 409 
z
M 2541 1666 
Q 2234 1541 1622 1453 
Q 1275 1403 1131 1340 
Q 988 1278 909 1158 
Q 831 1038 831 891 
Q 831 666 1001 516 
Q 1172 366 1500 366 
Q 1825 366 2078 508 
Q 2331 650 2450 897 
Q 2541 1088 2541 1459 
L 2541 1666 
z
" transform="scale(0.015625)"/>
       <path id="ArialMT-72" d="M 416 0 
L 416 3319 
L 922 3319 
L 922 2816 
Q 1116 3169 1280 3281 
Q 1444 3394 1641 3394 
Q 1925 3394 2219 3213 
L 2025 2691 
Q 1819 2813 1613 2813 
Q 1428 2813 1281 2702 
Q 1134 2591 1072 2394 
Q 978 2094 978 1738 
L 978 0 
L 416 0 
z
" transform="scale(0.015625)"/>
      </defs>
      <use xlink:href="#ArialMT-57"/>
      <use xlink:href="#ArialMT-65" x="92.634766"/>
      <use xlink:href="#ArialMT-65" x="148.25"/>
      <use xlink:href="#ArialMT-6b" x="203.865234"/>
      <use xlink:href="#ArialMT-20" x="253.865234"/>
      <use xlink:href="#ArialMT-6f" x="281.648438"/>
      <use xlink:href="#ArialMT-66" x="337.263672"/>
      <use xlink:href="#ArialMT-20" x="365.046875"/>
      <use xlink:href="#ArialMT-74" x="392.830078"/>
      <use xlink:href="#ArialMT-68" x="420.613281"/>
      <use xlink:href="#ArialMT-65" x="476.228516"/>
      <use xlink:href="#ArialMT-20" x="531.84375"/>
      <use xlink:href="#ArialMT-79" x="559.626953"/>
      <use xlink:href="#ArialMT-65" x="609.626953"/>
      <use xlink:href="#ArialMT-61" x="665.242188"/>
      <use xlink:href="#ArialMT-72" x="720.857422"/>
     </g>
    </g>
   </g>
   <g id="matplotlib.axis_2">
    <g id="ytick_1">
     <g id="line2d_7">
      <path d="M 144 484.232727 
L 1036.8 484.232727 
" clip-path="url(#pfb33a64bf6)" style="fill: none; stroke: #ffffff; stroke-width: 0.8; stroke-linecap: round"/>
     </g>
     <g id="text_8">
      <!-- 0 -->
      <g style="fill: #262626" transform="translate(131.439063 487.811634)scale(0.1 -0.1)">
       <use xlink:href="#ArialMT-30"/>
      </g>
     </g>
    </g>
    <g id="ytick_2">
     <g id="line2d_8">
      <path d="M 144 435.278921 
L 1036.8 435.278921 
" clip-path="url(#pfb33a64bf6)" style="fill: none; stroke: #ffffff; stroke-width: 0.8; stroke-linecap: round"/>
     </g>
     <g id="text_9">
      <!-- 50000 -->
      <g style="fill: #262626" transform="translate(109.195312 438.857828)scale(0.1 -0.1)">
       <use xlink:href="#ArialMT-35"/>
       <use xlink:href="#ArialMT-30" x="55.615234"/>
       <use xlink:href="#ArialMT-30" x="111.230469"/>
       <use xlink:href="#ArialMT-30" x="166.845703"/>
       <use xlink:href="#ArialMT-30" x="222.460938"/>
      </g>
     </g>
    </g>
    <g id="ytick_3">
     <g id="line2d_9">
      <path d="M 144 386.325115 
L 1036.8 386.325115 
" clip-path="url(#pfb33a64bf6)" style="fill: none; stroke: #ffffff; stroke-width: 0.8; stroke-linecap: round"/>
     </g>
     <g id="text_10">
      <!-- 100000 -->
      <g style="fill: #262626" transform="translate(103.634375 389.904021)scale(0.1 -0.1)">
       <use xlink:href="#ArialMT-31"/>
       <use xlink:href="#ArialMT-30" x="55.615234"/>
       <use xlink:href="#ArialMT-30" x="111.230469"/>
       <use xlink:href="#ArialMT-30" x="166.845703"/>
       <use xlink:href="#ArialMT-30" x="222.460938"/>
       <use xlink:href="#ArialMT-30" x="278.076172"/>
      </g>
     </g>
    </g>
    <g id="ytick_4">
     <g id="line2d_10">
      <path d="M 144 337.371309 
L 1036.8 337.371309 
" clip-path="url(#pfb33a64bf6)" style="fill: none; stroke: #ffffff; stroke-width: 0.8; stroke-linecap: round"/>
     </g>
     <g id="text_11">
      <!-- 150000 -->
      <g style="fill: #262626" transform="translate(103.634375 340.950215)scale(0.1 -0.1)">
       <use xlink:href="#ArialMT-31"/>
       <use xlink:href="#ArialMT-35" x="55.615234"/>
       <use xlink:href="#ArialMT-30" x="111.230469"/>
       <use xlink:href="#ArialMT-30" x="166.845703"/>
       <use xlink:href="#ArialMT-30" x="222.460938"/>
       <use xlink:href="#ArialMT-30" x="278.076172"/>
      </g>
     </g>
    </g>
    <g id="ytick_5">
     <g id="line2d_11">
      <path d="M 144 288.417503 
L 1036.8 288.417503 
" clip-path="url(#pfb33a64bf6)" style="fill: none; stroke: #ffffff; stroke-width: 0.8; stroke-linecap: round"/>
     </g>
     <g id="text_12">
      <!-- 200000 -->
      <g style="fill: #262626" transform="translate(103.634375 291.996409)scale(0.1 -0.1)">
       <use xlink:href="#ArialMT-32"/>
       <use xlink:href="#ArialMT-30" x="55.615234"/>
       <use xlink:href="#ArialMT-30" x="111.230469"/>
       <use xlink:href="#ArialMT-30" x="166.845703"/>
       <use xlink:href="#ArialMT-30" x="222.460938"/>
       <use xlink:href="#ArialMT-30" x="278.076172"/>
      </g>
     </g>
    </g>
    <g id="ytick_6">
     <g id="line2d_12">
      <path d="M 144 239.463697 
L 1036.8 239.463697 
" clip-path="url(#pfb33a64bf6)" style="fill: none; stroke: #ffffff; stroke-width: 0.8; stroke-linecap: round"/>
     </g>
     <g id="text_13">
      <!-- 250000 -->
      <g style="fill: #262626" transform="translate(103.634375 243.042603)scale(0.1 -0.1)">
       <use xlink:href="#ArialMT-32"/>
       <use xlink:href="#ArialMT-35" x="55.615234"/>
       <use xlink:href="#ArialMT-30" x="111.230469"/>
       <use xlink:href="#ArialMT-30" x="166.845703"/>
       <use xlink:href="#ArialMT-30" x="222.460938"/>
       <use xlink:href="#ArialMT-30" x="278.076172"/>
      </g>
     </g>
    </g>
    <g id="ytick_7">
     <g id="line2d_13">
      <path d="M 144 190.509891 
L 1036.8 190.509891 
" clip-path="url(#pfb33a64bf6)" style="fill: none; stroke: #ffffff; stroke-width: 0.8; stroke-linecap: round"/>
     </g>
     <g id="text_14">
      <!-- 300000 -->
      <g style="fill: #262626" transform="translate(103.634375 194.088797)scale(0.1 -0.1)">
       <use xlink:href="#ArialMT-33"/>
       <use xlink:href="#ArialMT-30" x="55.615234"/>
       <use xlink:href="#ArialMT-30" x="111.230469"/>
       <use xlink:href="#ArialMT-30" x="166.845703"/>
       <use xlink:href="#ArialMT-30" x="222.460938"/>
       <use xlink:href="#ArialMT-30" x="278.076172"/>
      </g>
     </g>
    </g>
    <g id="ytick_8">
     <g id="line2d_14">
      <path d="M 144 141.556085 
L 1036.8 141.556085 
" clip-path="url(#pfb33a64bf6)" style="fill: none; stroke: #ffffff; stroke-width: 0.8; stroke-linecap: round"/>
     </g>
     <g id="text_15">
      <!-- 350000 -->
      <g style="fill: #262626" transform="translate(103.634375 145.134991)scale(0.1 -0.1)">
       <use xlink:href="#ArialMT-33"/>
       <use xlink:href="#ArialMT-35" x="55.615234"/>
       <use xlink:href="#ArialMT-30" x="111.230469"/>
       <use xlink:href="#ArialMT-30" x="166.845703"/>
       <use xlink:href="#ArialMT-30" x="222.460938"/>
       <use xlink:href="#ArialMT-30" x="278.076172"/>
      </g>
     </g>
    </g>
    <g id="ytick_9">
     <g id="line2d_15">
      <path d="M 144 92.602279 
L 1036.8 92.602279 
" clip-path="url(#pfb33a64bf6)" style="fill: none; stroke: #ffffff; stroke-width: 0.8; stroke-linecap: round"/>
     </g>
     <g id="text_16">
      <!-- 400000 -->
      <g style="fill: #262626" transform="translate(103.634375 96.181185)scale(0.1 -0.1)">
       <use xlink:href="#ArialMT-34"/>
       <use xlink:href="#ArialMT-30" x="55.615234"/>
       <use xlink:href="#ArialMT-30" x="111.230469"/>
       <use xlink:href="#ArialMT-30" x="166.845703"/>
       <use xlink:href="#ArialMT-30" x="222.460938"/>
       <use xlink:href="#ArialMT-30" x="278.076172"/>
      </g>
     </g>
    </g>
    <g id="text_17">
     <!-- Total Minutes Utilized -->
     <g style="fill: #262626" transform="translate(97.646875 333.796719)rotate(-90)scale(0.1 -0.1)">
      <defs>
       <path id="ArialMT-54" d="M 1659 0 
L 1659 4041 
L 150 4041 
L 150 4581 
L 3781 4581 
L 3781 4041 
L 2266 4041 
L 2266 0 
L 1659 0 
z
" transform="scale(0.015625)"/>
       <path id="ArialMT-6c" d="M 409 0 
L 409 4581 
L 972 4581 
L 972 0 
L 409 0 
z
" transform="scale(0.015625)"/>
       <path id="ArialMT-4d" d="M 475 0 
L 475 4581 
L 1388 4581 
L 2472 1338 
Q 2622 884 2691 659 
Q 2769 909 2934 1394 
L 4031 4581 
L 4847 4581 
L 4847 0 
L 4263 0 
L 4263 3834 
L 2931 0 
L 2384 0 
L 1059 3900 
L 1059 0 
L 475 0 
z
" transform="scale(0.015625)"/>
       <path id="ArialMT-69" d="M 425 3934 
L 425 4581 
L 988 4581 
L 988 3934 
L 425 3934 
z
M 425 0 
L 425 3319 
L 988 3319 
L 988 0 
L 425 0 
z
" transform="scale(0.015625)"/>
       <path id="ArialMT-6e" d="M 422 0 
L 422 3319 
L 928 3319 
L 928 2847 
Q 1294 3394 1984 3394 
Q 2284 3394 2536 3286 
Q 2788 3178 2913 3003 
Q 3038 2828 3088 2588 
Q 3119 2431 3119 2041 
L 3119 0 
L 2556 0 
L 2556 2019 
Q 2556 2363 2490 2533 
Q 2425 2703 2258 2804 
Q 2091 2906 1866 2906 
Q 1506 2906 1245 2678 
Q 984 2450 984 1813 
L 984 0 
L 422 0 
z
" transform="scale(0.015625)"/>
       <path id="ArialMT-75" d="M 2597 0 
L 2597 488 
Q 2209 -75 1544 -75 
Q 1250 -75 995 37 
Q 741 150 617 320 
Q 494 491 444 738 
Q 409 903 409 1263 
L 409 3319 
L 972 3319 
L 972 1478 
Q 972 1038 1006 884 
Q 1059 663 1231 536 
Q 1403 409 1656 409 
Q 1909 409 2131 539 
Q 2353 669 2445 892 
Q 2538 1116 2538 1541 
L 2538 3319 
L 3100 3319 
L 3100 0 
L 2597 0 
z
" transform="scale(0.015625)"/>
       <path id="ArialMT-73" d="M 197 991 
L 753 1078 
Q 800 744 1014 566 
Q 1228 388 1613 388 
Q 2000 388 2187 545 
Q 2375 703 2375 916 
Q 2375 1106 2209 1216 
Q 2094 1291 1634 1406 
Q 1016 1563 777 1677 
Q 538 1791 414 1992 
Q 291 2194 291 2438 
Q 291 2659 392 2848 
Q 494 3038 669 3163 
Q 800 3259 1026 3326 
Q 1253 3394 1513 3394 
Q 1903 3394 2198 3281 
Q 2494 3169 2634 2976 
Q 2775 2784 2828 2463 
L 2278 2388 
Q 2241 2644 2061 2787 
Q 1881 2931 1553 2931 
Q 1166 2931 1000 2803 
Q 834 2675 834 2503 
Q 834 2394 903 2306 
Q 972 2216 1119 2156 
Q 1203 2125 1616 2013 
Q 2213 1853 2448 1751 
Q 2684 1650 2818 1456 
Q 2953 1263 2953 975 
Q 2953 694 2789 445 
Q 2625 197 2315 61 
Q 2006 -75 1616 -75 
Q 969 -75 630 194 
Q 291 463 197 991 
z
" transform="scale(0.015625)"/>
       <path id="ArialMT-55" d="M 3500 4581 
L 4106 4581 
L 4106 1934 
Q 4106 1244 3950 837 
Q 3794 431 3386 176 
Q 2978 -78 2316 -78 
Q 1672 -78 1262 144 
Q 853 366 678 786 
Q 503 1206 503 1934 
L 503 4581 
L 1109 4581 
L 1109 1938 
Q 1109 1341 1220 1058 
Q 1331 775 1601 622 
Q 1872 469 2263 469 
Q 2931 469 3215 772 
Q 3500 1075 3500 1938 
L 3500 4581 
z
" transform="scale(0.015625)"/>
       <path id="ArialMT-7a" d="M 125 0 
L 125 456 
L 2238 2881 
Q 1878 2863 1603 2863 
L 250 2863 
L 250 3319 
L 2963 3319 
L 2963 2947 
L 1166 841 
L 819 456 
Q 1197 484 1528 484 
L 3063 484 
L 3063 0 
L 125 0 
z
" transform="scale(0.015625)"/>
       <path id="ArialMT-64" d="M 2575 0 
L 2575 419 
Q 2259 -75 1647 -75 
Q 1250 -75 917 144 
Q 584 363 401 755 
Q 219 1147 219 1656 
Q 219 2153 384 2558 
Q 550 2963 881 3178 
Q 1213 3394 1622 3394 
Q 1922 3394 2156 3267 
Q 2391 3141 2538 2938 
L 2538 4581 
L 3097 4581 
L 3097 0 
L 2575 0 
z
M 797 1656 
Q 797 1019 1065 703 
Q 1334 388 1700 388 
Q 2069 388 2326 689 
Q 2584 991 2584 1609 
Q 2584 2291 2321 2609 
Q 2059 2928 1675 2928 
Q 1300 2928 1048 2622 
Q 797 2316 797 1656 
z
" transform="scale(0.015625)"/>
      </defs>
      <use xlink:href="#ArialMT-54"/>
      <use xlink:href="#ArialMT-6f" x="49.958984"/>
      <use xlink:href="#ArialMT-74" x="105.574219"/>
      <use xlink:href="#ArialMT-61" x="133.357422"/>
      <use xlink:href="#ArialMT-6c" x="188.972656"/>
      <use xlink:href="#ArialMT-20" x="211.189453"/>
      <use xlink:href="#ArialMT-4d" x="238.972656"/>
      <use xlink:href="#ArialMT-69" x="322.273438"/>
      <use xlink:href="#ArialMT-6e" x="344.490234"/>
      <use xlink:href="#ArialMT-75" x="400.105469"/>
      <use xlink:href="#ArialMT-74" x="455.720703"/>
      <use xlink:href="#ArialMT-65" x="483.503906"/>
      <use xlink:href="#ArialMT-73" x="539.119141"/>
      <use xlink:href="#ArialMT-20" x="589.119141"/>
      <use xlink:href="#ArialMT-55" x="616.902344"/>
      <use xlink:href="#ArialMT-74" x="689.119141"/>
      <use xlink:href="#ArialMT-69" x="716.902344"/>
      <use xlink:href="#ArialMT-6c" x="739.119141"/>
      <use xlink:href="#ArialMT-69" x="761.335938"/>
      <use xlink:href="#ArialMT-7a" x="783.552734"/>
      <use xlink:href="#ArialMT-65" x="833.552734"/>
      <use xlink:href="#ArialMT-64" x="889.167969"/>
     </g>
    </g>
   </g>
   <g id="line2d_16">
    <path d="M 184.581818 483.836201 
L 200.496257 481.60753 
L 216.410695 483.04315 
L 232.325134 483.175325 
L 248.239572 482.587879 
L 264.154011 484.232727 
L 280.068449 484.232727 
L 295.982888 481.280813 
L 311.897326 483.792143 
L 327.811765 483.806829 
L 343.726203 481.17801 
L 359.640642 481.971061 
L 375.55508 482.66131 
L 391.469519 483.432137 
L 407.383957 484.232727 
L 423.298396 484.232727 
L 439.212834 483.836201 
L 455.127273 484.232727 
L 471.041711 484.232727 
L 486.95615 484.232727 
L 502.870588 484.232727 
L 518.785027 483.49842 
L 534.699465 483.953691 
L 550.613904 484.232727 
L 566.528342 484.194935 
L 582.442781 483.160639 
L 598.357219 484.232727 
L 614.271658 484.07118 
L 630.186096 484.215593 
L 646.100535 483.762771 
L 662.014973 481.971061 
L 677.929412 483.04315 
L 693.84385 483.092006 
L 709.758289 482.778799 
L 725.672727 483.586537 
L 741.587166 483.23407 
L 757.501604 484.22137 
L 773.416043 481.045835 
L 789.330481 483.513106 
L 805.24492 482.01512 
L 821.159358 482.749427 
L 837.073797 483.145953 
L 852.988235 482.999091 
L 868.902674 481.941689 
L 884.817112 483.439676 
L 900.731551 483.894946 
L 916.645989 484.232727 
L 932.560428 483.806829 
L 948.474866 484.232727 
L 964.389305 483.762771 
L 980.303743 484.115238 
L 996.218182 484.232727 
" clip-path="url(#pfb33a64bf6)" style="fill: none; stroke: #1f77b4; stroke-width: 1.5; stroke-linecap: round"/>
   </g>
   <g id="line2d_17">
    <path d="M 184.581818 477.374299 
L 200.496257 472.944763 
L 216.410695 470.241534 
L 232.325134 473.889376 
L 248.239572 476.302211 
L 264.154011 470.70121 
L 280.068449 471.529019 
L 295.982888 474.768194 
L 311.897326 470.148717 
L 327.811765 475.055651 
L 343.726203 472.95377 
L 359.640642 475.23678 
L 375.55508 468.750107 
L 391.469519 473.483451 
L 407.383957 484.07118 
L 423.298396 482.352901 
L 439.212834 481.319682 
L 455.127273 481.940318 
L 471.041711 473.512823 
L 486.95615 462.438493 
L 502.870588 455.127829 
L 518.785027 458.820611 
L 534.699465 450.225693 
L 550.613904 460.66147 
L 566.528342 461.678436 
L 582.442781 451.707721 
L 598.357219 448.951132 
L 614.271658 456.652153 
L 630.186096 456.299588 
L 646.100535 458.458548 
L 662.014973 466.39024 
L 677.929412 458.399804 
L 693.84385 465.434857 
L 709.758289 463.347761 
L 725.672727 467.569635 
L 741.587166 465.904324 
L 757.501604 469.347637 
L 773.416043 468.753534 
L 789.330481 460.604585 
L 805.24492 459.163483 
L 821.159358 454.891578 
L 837.073797 456.211569 
L 852.988235 451.482631 
L 868.902674 463.929038 
L 884.817112 470.630325 
L 900.731551 470.88136 
L 916.645989 431.541886 
L 932.560428 471.041928 
L 948.474866 474.686735 
L 964.389305 476.457786 
L 980.303743 462.631665 
L 996.218182 461.141217 
" clip-path="url(#pfb33a64bf6)" style="fill: none; stroke: #aec7e8; stroke-width: 1.5; stroke-linecap: round"/>
   </g>
   <g id="line2d_18">
    <path d="M 184.581818 483.351559 
L 200.496257 483.630595 
L 216.410695 484.230377 
L 232.325134 482.896288 
L 248.239572 483.483734 
L 264.154011 482.69078 
L 280.068449 482.910975 
L 295.982888 483.424989 
L 311.897326 484.100552 
L 327.811765 481.927003 
L 343.726203 482.778799 
L 359.640642 483.557165 
L 375.55508 484.214223 
L 391.469519 484.232727 
L 407.383957 484.232727 
L 423.298396 484.232727 
L 439.212834 484.232727 
L 455.127273 483.571851 
L 471.041711 484.085866 
L 486.95615 484.232727 
L 502.870588 484.232727 
L 518.785027 483.850888 
L 534.699465 481.060521 
L 550.613904 480.737426 
L 566.528342 480.825542 
L 582.442781 476.889656 
L 598.357219 477.785511 
L 614.271658 478.09392 
L 630.186096 480.766798 
L 646.100535 480.252783 
L 662.014973 482.863294 
L 677.929412 477.051204 
L 693.84385 482.529135 
L 709.758289 481.957354 
L 725.672727 476.125977 
L 741.587166 482.352901 
L 757.501604 484.179759 
L 773.416043 482.47039 
L 789.330481 481.8242 
L 805.24492 480.194038 
L 821.159358 479.033833 
L 837.073797 482.602566 
L 852.988235 479.841571 
L 868.902674 480.737426 
L 884.817112 481.603908 
L 900.731551 481.280813 
L 916.645989 481.398302 
L 932.560428 482.866916 
L 948.474866 479.50379 
L 964.389305 482.763232 
L 980.303743 482.117923 
L 996.218182 481.661575 
" clip-path="url(#pfb33a64bf6)" style="fill: none; stroke: #ff7f0e; stroke-width: 1.5; stroke-linecap: round"/>
   </g>
   <g id="line2d_19">
    <path d="M 184.581818 482.382273 
L 200.496257 482.30757 
L 216.410695 480.840229 
L 232.325134 482.878469 
L 248.239572 482.455704 
L 264.154011 480.722739 
L 280.068449 481.765455 
L 295.982888 479.885629 
L 311.897326 480.223411 
L 327.811765 483.079082 
L 343.726203 480.678681 
L 359.640642 482.910975 
L 375.55508 482.412037 
L 391.469519 479.900315 
L 407.383957 484.203355 
L 423.298396 483.997749 
L 439.212834 483.806829 
L 455.127273 482.896288 
L 471.041711 482.132609 
L 486.95615 482.714866 
L 502.870588 478.681366 
L 518.785027 481.956375 
L 534.699465 475.993802 
L 550.613904 477.697394 
L 566.528342 477.139321 
L 582.442781 475.729451 
L 598.357219 472.166299 
L 614.271658 478.74011 
L 630.186096 478.417015 
L 646.100535 478.47576 
L 662.014973 478.431701 
L 677.929412 479.709396 
L 693.84385 479.474417 
L 709.758289 483.53024 
L 725.672727 481.545163 
L 741.587166 481.383616 
L 757.501604 483.410303 
L 773.416043 483.454362 
L 789.330481 481.501105 
L 805.24492 481.853572 
L 821.159358 479.151322 
L 837.073797 475.451589 
L 852.988235 482.822858 
L 868.902674 483.028464 
L 884.817112 482.367587 
L 900.731551 478.9231 
L 916.645989 482.147295 
L 932.560428 483.792143 
L 948.474866 483.997749 
L 964.389305 484.232727 
L 980.303743 482.27947 
L 996.218182 481.202389 
" clip-path="url(#pfb33a64bf6)" style="fill: none; stroke: #ffbb78; stroke-width: 1.5; stroke-linecap: round"/>
   </g>
   <g id="line2d_20">
    <path d="M 184.581818 480.563835 
L 200.496257 476.401783 
L 216.410695 476.741033 
L 232.325134 481.075207 
L 248.239572 480.931576 
L 264.154011 478.923981 
L 280.068449 478.857599 
L 295.982888 479.025217 
L 311.897326 475.01032 
L 327.811765 475.737284 
L 343.726203 478.25116 
L 359.640642 480.252783 
L 375.55508 476.400902 
L 391.469519 476.939883 
L 407.383957 484.188669 
L 423.298396 480.810856 
L 439.212834 473.429601 
L 455.127273 475.832254 
L 471.041711 471.367667 
L 486.95615 475.875921 
L 502.870588 463.355398 
L 518.785027 464.810011 
L 534.699465 465.51103 
L 550.613904 467.466832 
L 566.528342 475.914105 
L 582.442781 469.105512 
L 598.357219 464.737168 
L 614.271658 465.598363 
L 630.186096 470.717658 
L 646.100535 470.721477 
L 662.014973 472.851359 
L 677.929412 468.410955 
L 693.84385 467.421697 
L 709.758289 462.846865 
L 725.672727 475.276139 
L 741.587166 470.637276 
L 757.501604 469.085147 
L 773.416043 475.085513 
L 789.330481 473.791272 
L 805.24492 470.178873 
L 821.159358 468.907151 
L 837.073797 462.761588 
L 852.988235 465.759029 
L 868.902674 462.056164 
L 884.817112 470.321133 
L 900.731551 469.712147 
L 916.645989 450.043095 
L 932.560428 473.306238 
L 948.474866 472.938399 
L 964.389305 471.984485 
L 980.303743 458.855074 
L 996.218182 462.984621 
" clip-path="url(#pfb33a64bf6)" style="fill: none; stroke: #2ca02c; stroke-width: 1.5; stroke-linecap: round"/>
   </g>
   <g id="line2d_21">
    <path d="M 184.581818 483.153198 
L 200.496257 479.283497 
L 216.410695 481.060521 
L 232.325134 482.327347 
L 248.239572 483.248756 
L 264.154011 483.395617 
L 280.068449 483.013778 
L 295.982888 479.916568 
L 311.897326 483.674654 
L 327.811765 481.941689 
L 343.726203 482.67022 
L 359.640642 482.969719 
L 375.55508 483.292814 
L 391.469519 483.336873 
L 407.383957 483.3075 
L 423.298396 481.603908 
L 439.212834 480.722739 
L 455.127273 481.295499 
L 471.041711 481.795709 
L 486.95615 479.724082 
L 502.870588 479.004461 
L 518.785027 478.005803 
L 534.699465 481.033107 
L 550.613904 480.320437 
L 566.528342 475.780461 
L 582.442781 474.197491 
L 598.357219 470.685643 
L 614.271658 476.497341 
L 630.186096 480.42138 
L 646.100535 477.858942 
L 662.014973 469.918634 
L 677.929412 478.720137 
L 693.84385 470.430202 
L 709.758289 467.658437 
L 725.672727 456.097213 
L 741.587166 461.788288 
L 757.501604 459.021517 
L 773.416043 456.829953 
L 789.330481 453.992982 
L 805.24492 450.814314 
L 821.159358 449.855407 
L 837.073797 453.091743 
L 852.988235 458.077982 
L 868.902674 449.514884 
L 884.817112 449.894961 
L 900.731551 446.836327 
L 916.645989 449.365379 
L 932.560428 446.891939 
L 948.474866 442.100145 
L 964.389305 453.634445 
L 980.303743 457.555057 
L 996.218182 458.91705 
" clip-path="url(#pfb33a64bf6)" style="fill: none; stroke: #98df8a; stroke-width: 1.5; stroke-linecap: round"/>
   </g>
   <g id="line2d_22">
    <path d="M 184.581818 417.501445 
L 200.496257 419.234703 
L 216.410695 427.668954 
L 232.325134 431.231127 
L 248.239572 430.116057 
L 264.154011 417.666615 
L 280.068449 405.56915 
L 295.982888 414.753863 
L 311.897326 423.606082 
L 327.811765 419.013725 
L 343.726203 406.027064 
L 359.640642 414.065964 
L 375.55508 422.486508 
L 391.469519 420.969234 
L 407.383957 413.902948 
L 423.298396 401.514992 
L 439.212834 403.825513 
L 455.127273 392.027352 
L 471.041711 385.280343 
L 486.95615 374.549081 
L 502.870588 365.790266 
L 518.785027 347.927121 
L 534.699465 358.479505 
L 550.613904 371.051136 
L 566.528342 335.461523 
L 582.442781 308.211289 
L 598.357219 288.365025 
L 614.271658 345.261879 
L 630.186096 312.457934 
L 646.100535 264.472826 
L 662.014973 274.16705 
L 677.929412 268.454141 
L 693.84385 241.290947 
L 709.758289 242.497071 
L 725.672727 214.873026 
L 741.587166 253.876873 
L 757.501604 239.210704 
L 773.416043 257.121727 
L 789.330481 212.630745 
L 805.24492 181.597165 
L 821.159358 188.484868 
L 837.073797 186.910905 
L 852.988235 175.067511 
L 868.902674 199.357606 
L 884.817112 182.242866 
L 900.731551 148.675927 
L 916.645989 88.887273 
L 932.560428 181.871013 
L 948.474866 206.247659 
L 964.389305 184.285415 
L 980.303743 191.555055 
L 996.218182 202.80836 
" clip-path="url(#pfb33a64bf6)" style="fill: none; stroke: #d62728; stroke-width: 1.5; stroke-linecap: round"/>
   </g>
   <g id="line2d_23">
    <path d="M 184.581818 475.125655 
L 200.496257 471.990555 
L 216.410695 472.476177 
L 232.325134 476.689533 
L 248.239572 471.470078 
L 264.154011 475.016586 
L 280.068449 469.95251 
L 295.982888 471.646704 
L 311.897326 468.258611 
L 327.811765 466.483546 
L 343.726203 468.848602 
L 359.640642 468.277017 
L 375.55508 470.222931 
L 391.469519 464.358559 
L 407.383957 482.705369 
L 423.298396 484.073921 
L 439.212834 461.42417 
L 455.127273 460.490327 
L 471.041711 459.325031 
L 486.95615 465.18206 
L 502.870588 452.091029 
L 518.785027 460.422673 
L 534.699465 459.550218 
L 550.613904 457.252327 
L 566.528342 448.643408 
L 582.442781 437.323624 
L 598.357219 427.811997 
L 614.271658 429.416409 
L 630.186096 413.681383 
L 646.100535 440.953646 
L 662.014973 442.253468 
L 677.929412 437.061721 
L 693.84385 435.313189 
L 709.758289 445.840509 
L 725.672727 430.599525 
L 741.587166 433.418677 
L 757.501604 408.742336 
L 773.416043 413.944167 
L 789.330481 428.322585 
L 805.24492 431.53885 
L 821.159358 435.695812 
L 837.073797 438.141936 
L 852.988235 440.024797 
L 868.902674 451.51357 
L 884.817112 452.201567 
L 900.731551 443.448724 
L 916.645989 439.75888 
L 932.560428 450.621729 
L 948.474866 424.556961 
L 964.389305 447.374036 
L 980.303743 446.491888 
L 996.218182 454.915664 
" clip-path="url(#pfb33a64bf6)" style="fill: none; stroke: #ff9896; stroke-width: 1.5; stroke-linecap: round"/>
   </g>
   <g id="line2d_24">
    <path d="M 375.55508 484.232727 
L 391.469519 484.232727 
L 407.383957 484.014981 
L 423.298396 484.232727 
L 439.212834 484.232727 
L 455.127273 483.584481 
L 471.041711 483.324732 
L 486.95615 479.395112 
L 502.870588 477.403671 
L 518.785027 478.237844 
L 534.699465 478.477228 
L 550.613904 477.265034 
L 566.528342 472.439951 
L 582.442781 475.20261 
L 598.357219 476.416175 
L 614.271658 473.43293 
L 630.186096 480.340312 
L 646.100535 478.587472 
L 662.014973 479.430359 
L 677.929412 472.601205 
L 693.84385 472.645361 
L 709.758289 477.9451 
L 725.672727 480.275693 
L 741.587166 477.902804 
L 757.501604 479.562534 
L 773.416043 477.851697 
L 789.330481 478.828227 
L 805.24492 480.913659 
L 821.159358 478.901658 
L 837.073797 477.848955 
L 852.988235 479.621279 
L 868.902674 481.01 
L 884.817112 479.400987 
L 900.731551 480.303793 
L 916.645989 480.610537 
L 932.560428 479.213983 
L 948.474866 479.194891 
L 964.389305 478.082856 
L 980.303743 467.434522 
L 996.218182 468.681474 
" clip-path="url(#pfb33a64bf6)" style="fill: none; stroke: #9467bd; stroke-width: 1.5; stroke-linecap: round"/>
   </g>
   <g id="line2d_25">
    <path d="M 709.758289 484.232727 
L 725.672727 484.232727 
L 741.587166 484.232727 
L 757.501604 483.748085 
L 773.416043 476.9859 
L 789.330481 475.905685 
L 805.24492 476.439379 
L 821.159358 477.826338 
L 837.073797 475.788 
L 852.988235 476.4197 
L 868.902674 472.557734 
L 884.817112 474.172231 
L 900.731551 473.786279 
L 916.645989 471.360814 
L 932.560428 479.327556 
L 948.474866 472.200665 
L 964.389305 475.567904 
L 980.303743 475.941617 
L 996.218182 476.974444 
" clip-path="url(#pfb33a64bf6)" style="fill: none; stroke: #c5b0d5; stroke-width: 1.5; stroke-linecap: round"/>
   </g>
   <g id="line2d_26">
    <path d="M 725.672727 481.266127 
L 741.587166 476.532294 
L 757.501604 481.736964 
L 773.416043 481.736083 
L 789.330481 479.50379 
L 805.24492 478.637307 
L 821.159358 477.844256 
L 837.073797 477.530462 
L 852.988235 477.800197 
L 868.902674 478.852508 
L 884.817112 479.263818 
L 900.731551 482.866916 
L 916.645989 480.614747 
L 932.560428 478.183408 
L 948.474866 477.999537 
L 964.389305 477.679183 
L 980.303743 476.284098 
L 996.218182 475.617641 
" clip-path="url(#pfb33a64bf6)" style="fill: none; stroke: #8c564b; stroke-width: 1.5; stroke-linecap: round"/>
   </g>
   <g id="line2d_27"/>
   <g id="line2d_28"/>
   <g id="line2d_29"/>
   <g id="line2d_30"/>
   <g id="line2d_31"/>
   <g id="line2d_32"/>
   <g id="line2d_33"/>
   <g id="line2d_34"/>
   <g id="line2d_35"/>
   <g id="line2d_36"/>
   <g id="line2d_37"/>
   <g id="patch_3">
    <path d="M 144 504 
L 144 69.12 
" style="fill: none; stroke: #ffffff; stroke-width: 0.8; stroke-linejoin: miter; stroke-linecap: square"/>
   </g>
   <g id="patch_4">
    <path d="M 1036.8 504 
L 1036.8 69.12 
" style="fill: none; stroke: #ffffff; stroke-width: 0.8; stroke-linejoin: miter; stroke-linecap: square"/>
   </g>
   <g id="patch_5">
    <path d="M 144 504 
L 1036.8 504 
" style="fill: none; stroke: #ffffff; stroke-width: 0.8; stroke-linejoin: miter; stroke-linecap: square"/>
   </g>
   <g id="patch_6">
    <path d="M 144 69.12 
L 1036.8 69.12 
" style="fill: none; stroke: #ffffff; stroke-width: 0.8; stroke-linejoin: miter; stroke-linecap: square"/>
   </g>
   <g id="text_18">
    <!-- Aggregated utilization per week by City -->
    <g style="fill: #262626" transform="translate(486.683437 63.12)scale(0.12 -0.12)">
     <defs>
      <path id="ArialMT-41" d="M -9 0 
L 1750 4581 
L 2403 4581 
L 4278 0 
L 3588 0 
L 3053 1388 
L 1138 1388 
L 634 0 
L -9 0 
z
M 1313 1881 
L 2866 1881 
L 2388 3150 
Q 2169 3728 2063 4100 
Q 1975 3659 1816 3225 
L 1313 1881 
z
" transform="scale(0.015625)"/>
      <path id="ArialMT-67" d="M 319 -275 
L 866 -356 
Q 900 -609 1056 -725 
Q 1266 -881 1628 -881 
Q 2019 -881 2231 -725 
Q 2444 -569 2519 -288 
Q 2563 -116 2559 434 
Q 2191 0 1641 0 
Q 956 0 581 494 
Q 206 988 206 1678 
Q 206 2153 378 2554 
Q 550 2956 876 3175 
Q 1203 3394 1644 3394 
Q 2231 3394 2613 2919 
L 2613 3319 
L 3131 3319 
L 3131 450 
Q 3131 -325 2973 -648 
Q 2816 -972 2473 -1159 
Q 2131 -1347 1631 -1347 
Q 1038 -1347 672 -1080 
Q 306 -813 319 -275 
z
M 784 1719 
Q 784 1066 1043 766 
Q 1303 466 1694 466 
Q 2081 466 2343 764 
Q 2606 1063 2606 1700 
Q 2606 2309 2336 2618 
Q 2066 2928 1684 2928 
Q 1309 2928 1046 2623 
Q 784 2319 784 1719 
z
" transform="scale(0.015625)"/>
      <path id="ArialMT-70" d="M 422 -1272 
L 422 3319 
L 934 3319 
L 934 2888 
Q 1116 3141 1344 3267 
Q 1572 3394 1897 3394 
Q 2322 3394 2647 3175 
Q 2972 2956 3137 2557 
Q 3303 2159 3303 1684 
Q 3303 1175 3120 767 
Q 2938 359 2589 142 
Q 2241 -75 1856 -75 
Q 1575 -75 1351 44 
Q 1128 163 984 344 
L 984 -1272 
L 422 -1272 
z
M 931 1641 
Q 931 1000 1190 694 
Q 1450 388 1819 388 
Q 2194 388 2461 705 
Q 2728 1022 2728 1688 
Q 2728 2322 2467 2637 
Q 2206 2953 1844 2953 
Q 1484 2953 1207 2617 
Q 931 2281 931 1641 
z
" transform="scale(0.015625)"/>
      <path id="ArialMT-77" d="M 1034 0 
L 19 3319 
L 600 3319 
L 1128 1403 
L 1325 691 
Q 1338 744 1497 1375 
L 2025 3319 
L 2603 3319 
L 3100 1394 
L 3266 759 
L 3456 1400 
L 4025 3319 
L 4572 3319 
L 3534 0 
L 2950 0 
L 2422 1988 
L 2294 2553 
L 1622 0 
L 1034 0 
z
" transform="scale(0.015625)"/>
      <path id="ArialMT-62" d="M 941 0 
L 419 0 
L 419 4581 
L 981 4581 
L 981 2947 
Q 1338 3394 1891 3394 
Q 2197 3394 2470 3270 
Q 2744 3147 2920 2923 
Q 3097 2700 3197 2384 
Q 3297 2069 3297 1709 
Q 3297 856 2875 390 
Q 2453 -75 1863 -75 
Q 1275 -75 941 416 
L 941 0 
z
M 934 1684 
Q 934 1088 1097 822 
Q 1363 388 1816 388 
Q 2184 388 2453 708 
Q 2722 1028 2722 1663 
Q 2722 2313 2464 2622 
Q 2206 2931 1841 2931 
Q 1472 2931 1203 2611 
Q 934 2291 934 1684 
z
" transform="scale(0.015625)"/>
      <path id="ArialMT-43" d="M 3763 1606 
L 4369 1453 
Q 4178 706 3683 314 
Q 3188 -78 2472 -78 
Q 1731 -78 1267 223 
Q 803 525 561 1097 
Q 319 1669 319 2325 
Q 319 3041 592 3573 
Q 866 4106 1370 4382 
Q 1875 4659 2481 4659 
Q 3169 4659 3637 4309 
Q 4106 3959 4291 3325 
L 3694 3184 
Q 3534 3684 3231 3912 
Q 2928 4141 2469 4141 
Q 1941 4141 1586 3887 
Q 1231 3634 1087 3207 
Q 944 2781 944 2328 
Q 944 1744 1114 1308 
Q 1284 872 1643 656 
Q 2003 441 2422 441 
Q 2931 441 3284 734 
Q 3638 1028 3763 1606 
z
" transform="scale(0.015625)"/>
     </defs>
     <use xlink:href="#ArialMT-41"/>
     <use xlink:href="#ArialMT-67" x="66.699219"/>
     <use xlink:href="#ArialMT-67" x="122.314453"/>
     <use xlink:href="#ArialMT-72" x="177.929688"/>
     <use xlink:href="#ArialMT-65" x="211.230469"/>
     <use xlink:href="#ArialMT-67" x="266.845703"/>
     <use xlink:href="#ArialMT-61" x="322.460938"/>
     <use xlink:href="#ArialMT-74" x="378.076172"/>
     <use xlink:href="#ArialMT-65" x="405.859375"/>
     <use xlink:href="#ArialMT-64" x="461.474609"/>
     <use xlink:href="#ArialMT-20" x="517.089844"/>
     <use xlink:href="#ArialMT-75" x="544.873047"/>
     <use xlink:href="#ArialMT-74" x="600.488281"/>
     <use xlink:href="#ArialMT-69" x="628.271484"/>
     <use xlink:href="#ArialMT-6c" x="650.488281"/>
     <use xlink:href="#ArialMT-69" x="672.705078"/>
     <use xlink:href="#ArialMT-7a" x="694.921875"/>
     <use xlink:href="#ArialMT-61" x="744.921875"/>
     <use xlink:href="#ArialMT-74" x="800.537109"/>
     <use xlink:href="#ArialMT-69" x="828.320312"/>
     <use xlink:href="#ArialMT-6f" x="850.537109"/>
     <use xlink:href="#ArialMT-6e" x="906.152344"/>
     <use xlink:href="#ArialMT-20" x="961.767578"/>
     <use xlink:href="#ArialMT-70" x="989.550781"/>
     <use xlink:href="#ArialMT-65" x="1045.166016"/>
     <use xlink:href="#ArialMT-72" x="1100.78125"/>
     <use xlink:href="#ArialMT-20" x="1134.082031"/>
     <use xlink:href="#ArialMT-77" x="1161.865234"/>
     <use xlink:href="#ArialMT-65" x="1234.082031"/>
     <use xlink:href="#ArialMT-65" x="1289.697266"/>
     <use xlink:href="#ArialMT-6b" x="1345.3125"/>
     <use xlink:href="#ArialMT-20" x="1395.3125"/>
     <use xlink:href="#ArialMT-62" x="1423.095703"/>
     <use xlink:href="#ArialMT-79" x="1478.710938"/>
     <use xlink:href="#ArialMT-20" x="1528.710938"/>
     <use xlink:href="#ArialMT-43" x="1556.494141"/>
     <use xlink:href="#ArialMT-69" x="1628.710938"/>
     <use xlink:href="#ArialMT-74" x="1650.927734"/>
     <use xlink:href="#ArialMT-79" x="1678.710938"/>
    </g>
   </g>
   <g id="legend_1">
    <g id="patch_7">
     <path d="M 151 247.810625 
L 268.942187 247.810625 
Q 270.942187 247.810625 270.942187 245.810625 
L 270.942187 76.12 
Q 270.942187 74.12 268.942187 74.12 
L 151 74.12 
Q 149 74.12 149 76.12 
L 149 245.810625 
Q 149 247.810625 151 247.810625 
z
" style="fill: #eaeaf2; opacity: 0.8; stroke: #cccccc; stroke-linejoin: miter"/>
    </g>
    <g id="text_19">
     <!-- car_parking_address_city -->
     <g style="fill: #262626" transform="translate(153 85.277812)scale(0.1 -0.1)">
      <defs>
       <path id="ArialMT-63" d="M 2588 1216 
L 3141 1144 
Q 3050 572 2676 248 
Q 2303 -75 1759 -75 
Q 1078 -75 664 370 
Q 250 816 250 1647 
Q 250 2184 428 2587 
Q 606 2991 970 3192 
Q 1334 3394 1763 3394 
Q 2303 3394 2647 3120 
Q 2991 2847 3088 2344 
L 2541 2259 
Q 2463 2594 2264 2762 
Q 2066 2931 1784 2931 
Q 1359 2931 1093 2626 
Q 828 2322 828 1663 
Q 828 994 1084 691 
Q 1341 388 1753 388 
Q 2084 388 2306 591 
Q 2528 794 2588 1216 
z
" transform="scale(0.015625)"/>
       <path id="ArialMT-5f" d="M -97 -1272 
L -97 -866 
L 3631 -866 
L 3631 -1272 
L -97 -1272 
z
" transform="scale(0.015625)"/>
      </defs>
      <use xlink:href="#ArialMT-63"/>
      <use xlink:href="#ArialMT-61" x="50"/>
      <use xlink:href="#ArialMT-72" x="105.615234"/>
      <use xlink:href="#ArialMT-5f" x="138.916016"/>
      <use xlink:href="#ArialMT-70" x="194.53125"/>
      <use xlink:href="#ArialMT-61" x="250.146484"/>
      <use xlink:href="#ArialMT-72" x="305.761719"/>
      <use xlink:href="#ArialMT-6b" x="339.0625"/>
      <use xlink:href="#ArialMT-69" x="389.0625"/>
      <use xlink:href="#ArialMT-6e" x="411.279297"/>
      <use xlink:href="#ArialMT-67" x="466.894531"/>
      <use xlink:href="#ArialMT-5f" x="522.509766"/>
      <use xlink:href="#ArialMT-61" x="578.125"/>
      <use xlink:href="#ArialMT-64" x="633.740234"/>
      <use xlink:href="#ArialMT-64" x="689.355469"/>
      <use xlink:href="#ArialMT-72" x="744.970703"/>
      <use xlink:href="#ArialMT-65" x="778.271484"/>
      <use xlink:href="#ArialMT-73" x="833.886719"/>
      <use xlink:href="#ArialMT-73" x="883.886719"/>
      <use xlink:href="#ArialMT-5f" x="933.886719"/>
      <use xlink:href="#ArialMT-63" x="989.501953"/>
      <use xlink:href="#ArialMT-69" x="1039.501953"/>
      <use xlink:href="#ArialMT-74" x="1061.71875"/>
      <use xlink:href="#ArialMT-79" x="1089.501953"/>
     </g>
    </g>
    <g id="line2d_38">
     <path d="M 164.014844 96.040312 
L 174.014844 96.040312 
L 184.014844 96.040312 
" style="fill: none; stroke: #1f77b4; stroke-width: 1.5; stroke-linecap: round"/>
    </g>
    <g id="text_20">
     <!-- Arlington -->
     <g style="fill: #262626" transform="translate(192.014844 99.540312)scale(0.1 -0.1)">
      <use xlink:href="#ArialMT-41"/>
      <use xlink:href="#ArialMT-72" x="66.699219"/>
      <use xlink:href="#ArialMT-6c" x="100"/>
      <use xlink:href="#ArialMT-69" x="122.216797"/>
      <use xlink:href="#ArialMT-6e" x="144.433594"/>
      <use xlink:href="#ArialMT-67" x="200.048828"/>
      <use xlink:href="#ArialMT-74" x="255.664062"/>
      <use xlink:href="#ArialMT-6f" x="283.447266"/>
      <use xlink:href="#ArialMT-6e" x="339.0625"/>
     </g>
    </g>
    <g id="line2d_39">
     <path d="M 164.014844 110.302812 
L 174.014844 110.302812 
L 184.014844 110.302812 
" style="fill: none; stroke: #aec7e8; stroke-width: 1.5; stroke-linecap: round"/>
    </g>
    <g id="text_21">
     <!-- Boston -->
     <g style="fill: #262626" transform="translate(192.014844 113.802812)scale(0.1 -0.1)">
      <defs>
       <path id="ArialMT-42" d="M 469 0 
L 469 4581 
L 2188 4581 
Q 2713 4581 3030 4442 
Q 3347 4303 3526 4014 
Q 3706 3725 3706 3409 
Q 3706 3116 3547 2856 
Q 3388 2597 3066 2438 
Q 3481 2316 3704 2022 
Q 3928 1728 3928 1328 
Q 3928 1006 3792 729 
Q 3656 453 3456 303 
Q 3256 153 2954 76 
Q 2653 0 2216 0 
L 469 0 
z
M 1075 2656 
L 2066 2656 
Q 2469 2656 2644 2709 
Q 2875 2778 2992 2937 
Q 3109 3097 3109 3338 
Q 3109 3566 3000 3739 
Q 2891 3913 2687 3977 
Q 2484 4041 1991 4041 
L 1075 4041 
L 1075 2656 
z
M 1075 541 
L 2216 541 
Q 2509 541 2628 563 
Q 2838 600 2978 687 
Q 3119 775 3209 942 
Q 3300 1109 3300 1328 
Q 3300 1584 3169 1773 
Q 3038 1963 2805 2039 
Q 2572 2116 2134 2116 
L 1075 2116 
L 1075 541 
z
" transform="scale(0.015625)"/>
      </defs>
      <use xlink:href="#ArialMT-42"/>
      <use xlink:href="#ArialMT-6f" x="66.699219"/>
      <use xlink:href="#ArialMT-73" x="122.314453"/>
      <use xlink:href="#ArialMT-74" x="172.314453"/>
      <use xlink:href="#ArialMT-6f" x="200.097656"/>
      <use xlink:href="#ArialMT-6e" x="255.712891"/>
     </g>
    </g>
    <g id="line2d_40">
     <path d="M 164.014844 124.448125 
L 174.014844 124.448125 
L 184.014844 124.448125 
" style="fill: none; stroke: #ff7f0e; stroke-width: 1.5; stroke-linecap: round"/>
    </g>
    <g id="text_22">
     <!-- Brookline -->
     <g style="fill: #262626" transform="translate(192.014844 127.948125)scale(0.1 -0.1)">
      <use xlink:href="#ArialMT-42"/>
      <use xlink:href="#ArialMT-72" x="66.699219"/>
      <use xlink:href="#ArialMT-6f" x="100"/>
      <use xlink:href="#ArialMT-6f" x="155.615234"/>
      <use xlink:href="#ArialMT-6b" x="211.230469"/>
      <use xlink:href="#ArialMT-6c" x="261.230469"/>
      <use xlink:href="#ArialMT-69" x="283.447266"/>
      <use xlink:href="#ArialMT-6e" x="305.664062"/>
      <use xlink:href="#ArialMT-65" x="361.279297"/>
     </g>
    </g>
    <g id="line2d_41">
     <path d="M 164.014844 138.715312 
L 174.014844 138.715312 
L 184.014844 138.715312 
" style="fill: none; stroke: #ffbb78; stroke-width: 1.5; stroke-linecap: round"/>
    </g>
    <g id="text_23">
     <!-- Cambridge -->
     <g style="fill: #262626" transform="translate(192.014844 142.215312)scale(0.1 -0.1)">
      <defs>
       <path id="ArialMT-6d" d="M 422 0 
L 422 3319 
L 925 3319 
L 925 2853 
Q 1081 3097 1340 3245 
Q 1600 3394 1931 3394 
Q 2300 3394 2536 3241 
Q 2772 3088 2869 2813 
Q 3263 3394 3894 3394 
Q 4388 3394 4653 3120 
Q 4919 2847 4919 2278 
L 4919 0 
L 4359 0 
L 4359 2091 
Q 4359 2428 4304 2576 
Q 4250 2725 4106 2815 
Q 3963 2906 3769 2906 
Q 3419 2906 3187 2673 
Q 2956 2441 2956 1928 
L 2956 0 
L 2394 0 
L 2394 2156 
Q 2394 2531 2256 2718 
Q 2119 2906 1806 2906 
Q 1569 2906 1367 2781 
Q 1166 2656 1075 2415 
Q 984 2175 984 1722 
L 984 0 
L 422 0 
z
" transform="scale(0.015625)"/>
      </defs>
      <use xlink:href="#ArialMT-43"/>
      <use xlink:href="#ArialMT-61" x="72.216797"/>
      <use xlink:href="#ArialMT-6d" x="127.832031"/>
      <use xlink:href="#ArialMT-62" x="211.132812"/>
      <use xlink:href="#ArialMT-72" x="266.748047"/>
      <use xlink:href="#ArialMT-69" x="300.048828"/>
      <use xlink:href="#ArialMT-64" x="322.265625"/>
      <use xlink:href="#ArialMT-67" x="377.880859"/>
      <use xlink:href="#ArialMT-65" x="433.496094"/>
     </g>
    </g>
    <g id="line2d_42">
     <path d="M 164.014844 153.099687 
L 174.014844 153.099687 
L 184.014844 153.099687 
" style="fill: none; stroke: #2ca02c; stroke-width: 1.5; stroke-linecap: round"/>
    </g>
    <g id="text_24">
     <!-- Chicago -->
     <g style="fill: #262626" transform="translate(192.014844 156.599687)scale(0.1 -0.1)">
      <use xlink:href="#ArialMT-43"/>
      <use xlink:href="#ArialMT-68" x="72.216797"/>
      <use xlink:href="#ArialMT-69" x="127.832031"/>
      <use xlink:href="#ArialMT-63" x="150.048828"/>
      <use xlink:href="#ArialMT-61" x="200.048828"/>
      <use xlink:href="#ArialMT-67" x="255.664062"/>
      <use xlink:href="#ArialMT-6f" x="311.279297"/>
     </g>
    </g>
    <g id="line2d_43">
     <path d="M 164.014844 167.362188 
L 174.014844 167.362188 
L 184.014844 167.362188 
" style="fill: none; stroke: #98df8a; stroke-width: 1.5; stroke-linecap: round"/>
    </g>
    <g id="text_25">
     <!-- Oakland -->
     <g style="fill: #262626" transform="translate(192.014844 170.862188)scale(0.1 -0.1)">
      <defs>
       <path id="ArialMT-4f" d="M 309 2231 
Q 309 3372 921 4017 
Q 1534 4663 2503 4663 
Q 3138 4663 3647 4359 
Q 4156 4056 4423 3514 
Q 4691 2972 4691 2284 
Q 4691 1588 4409 1038 
Q 4128 488 3612 205 
Q 3097 -78 2500 -78 
Q 1853 -78 1343 234 
Q 834 547 571 1087 
Q 309 1628 309 2231 
z
M 934 2222 
Q 934 1394 1379 917 
Q 1825 441 2497 441 
Q 3181 441 3623 922 
Q 4066 1403 4066 2288 
Q 4066 2847 3877 3264 
Q 3688 3681 3323 3911 
Q 2959 4141 2506 4141 
Q 1863 4141 1398 3698 
Q 934 3256 934 2222 
z
" transform="scale(0.015625)"/>
      </defs>
      <use xlink:href="#ArialMT-4f"/>
      <use xlink:href="#ArialMT-61" x="77.783203"/>
      <use xlink:href="#ArialMT-6b" x="133.398438"/>
      <use xlink:href="#ArialMT-6c" x="183.398438"/>
      <use xlink:href="#ArialMT-61" x="205.615234"/>
      <use xlink:href="#ArialMT-6e" x="261.230469"/>
      <use xlink:href="#ArialMT-64" x="316.845703"/>
     </g>
    </g>
    <g id="line2d_44">
     <path d="M 164.014844 181.5075 
L 174.014844 181.5075 
L 184.014844 181.5075 
" style="fill: none; stroke: #d62728; stroke-width: 1.5; stroke-linecap: round"/>
    </g>
    <g id="text_26">
     <!-- San Francisco -->
     <g style="fill: #262626" transform="translate(192.014844 185.0075)scale(0.1 -0.1)">
      <defs>
       <path id="ArialMT-53" d="M 288 1472 
L 859 1522 
Q 900 1178 1048 958 
Q 1197 738 1509 602 
Q 1822 466 2213 466 
Q 2559 466 2825 569 
Q 3091 672 3220 851 
Q 3350 1031 3350 1244 
Q 3350 1459 3225 1620 
Q 3100 1781 2813 1891 
Q 2628 1963 1997 2114 
Q 1366 2266 1113 2400 
Q 784 2572 623 2826 
Q 463 3081 463 3397 
Q 463 3744 659 4045 
Q 856 4347 1234 4503 
Q 1613 4659 2075 4659 
Q 2584 4659 2973 4495 
Q 3363 4331 3572 4012 
Q 3781 3694 3797 3291 
L 3216 3247 
Q 3169 3681 2898 3903 
Q 2628 4125 2100 4125 
Q 1550 4125 1298 3923 
Q 1047 3722 1047 3438 
Q 1047 3191 1225 3031 
Q 1400 2872 2139 2705 
Q 2878 2538 3153 2413 
Q 3553 2228 3743 1945 
Q 3934 1663 3934 1294 
Q 3934 928 3725 604 
Q 3516 281 3123 101 
Q 2731 -78 2241 -78 
Q 1619 -78 1198 103 
Q 778 284 539 648 
Q 300 1013 288 1472 
z
" transform="scale(0.015625)"/>
       <path id="ArialMT-46" d="M 525 0 
L 525 4581 
L 3616 4581 
L 3616 4041 
L 1131 4041 
L 1131 2622 
L 3281 2622 
L 3281 2081 
L 1131 2081 
L 1131 0 
L 525 0 
z
" transform="scale(0.015625)"/>
      </defs>
      <use xlink:href="#ArialMT-53"/>
      <use xlink:href="#ArialMT-61" x="66.699219"/>
      <use xlink:href="#ArialMT-6e" x="122.314453"/>
      <use xlink:href="#ArialMT-20" x="177.929688"/>
      <use xlink:href="#ArialMT-46" x="205.712891"/>
      <use xlink:href="#ArialMT-72" x="266.796875"/>
      <use xlink:href="#ArialMT-61" x="300.097656"/>
      <use xlink:href="#ArialMT-6e" x="355.712891"/>
      <use xlink:href="#ArialMT-63" x="411.328125"/>
      <use xlink:href="#ArialMT-69" x="461.328125"/>
      <use xlink:href="#ArialMT-73" x="483.544922"/>
      <use xlink:href="#ArialMT-63" x="533.544922"/>
      <use xlink:href="#ArialMT-6f" x="583.544922"/>
     </g>
    </g>
    <g id="line2d_45">
     <path d="M 164.014844 195.652812 
L 174.014844 195.652812 
L 184.014844 195.652812 
" style="fill: none; stroke: #ff9896; stroke-width: 1.5; stroke-linecap: round"/>
    </g>
    <g id="text_27">
     <!-- Washington -->
     <g style="fill: #262626" transform="translate(192.014844 199.152812)scale(0.1 -0.1)">
      <use xlink:href="#ArialMT-57"/>
      <use xlink:href="#ArialMT-61" x="90.634766"/>
      <use xlink:href="#ArialMT-73" x="146.25"/>
      <use xlink:href="#ArialMT-68" x="196.25"/>
      <use xlink:href="#ArialMT-69" x="251.865234"/>
      <use xlink:href="#ArialMT-6e" x="274.082031"/>
      <use xlink:href="#ArialMT-67" x="329.697266"/>
      <use xlink:href="#ArialMT-74" x="385.3125"/>
      <use xlink:href="#ArialMT-6f" x="413.095703"/>
      <use xlink:href="#ArialMT-6e" x="468.710938"/>
     </g>
    </g>
    <g id="line2d_46">
     <path d="M 164.014844 209.915312 
L 174.014844 209.915312 
L 184.014844 209.915312 
" style="fill: none; stroke: #9467bd; stroke-width: 1.5; stroke-linecap: round"/>
    </g>
    <g id="text_28">
     <!-- Berkeley -->
     <g style="fill: #262626" transform="translate(192.014844 213.415312)scale(0.1 -0.1)">
      <use xlink:href="#ArialMT-42"/>
      <use xlink:href="#ArialMT-65" x="66.699219"/>
      <use xlink:href="#ArialMT-72" x="122.314453"/>
      <use xlink:href="#ArialMT-6b" x="155.615234"/>
      <use xlink:href="#ArialMT-65" x="205.615234"/>
      <use xlink:href="#ArialMT-6c" x="261.230469"/>
      <use xlink:href="#ArialMT-65" x="283.447266"/>
      <use xlink:href="#ArialMT-79" x="339.0625"/>
     </g>
    </g>
    <g id="line2d_47">
     <path d="M 164.014844 224.177812 
L 174.014844 224.177812 
L 184.014844 224.177812 
" style="fill: none; stroke: #c5b0d5; stroke-width: 1.5; stroke-linecap: round"/>
    </g>
    <g id="text_29">
     <!-- San Bruno -->
     <g style="fill: #262626" transform="translate(192.014844 227.677812)scale(0.1 -0.1)">
      <use xlink:href="#ArialMT-53"/>
      <use xlink:href="#ArialMT-61" x="66.699219"/>
      <use xlink:href="#ArialMT-6e" x="122.314453"/>
      <use xlink:href="#ArialMT-20" x="177.929688"/>
      <use xlink:href="#ArialMT-42" x="205.712891"/>
      <use xlink:href="#ArialMT-72" x="272.412109"/>
      <use xlink:href="#ArialMT-75" x="305.712891"/>
      <use xlink:href="#ArialMT-6e" x="361.328125"/>
      <use xlink:href="#ArialMT-6f" x="416.943359"/>
     </g>
    </g>
    <g id="line2d_48">
     <path d="M 164.014844 238.323125 
L 174.014844 238.323125 
L 184.014844 238.323125 
" style="fill: none; stroke: #8c564b; stroke-width: 1.5; stroke-linecap: round"/>
    </g>
    <g id="text_30">
     <!-- San Mateo -->
     <g style="fill: #262626" transform="translate(192.014844 241.823125)scale(0.1 -0.1)">
      <use xlink:href="#ArialMT-53"/>
      <use xlink:href="#ArialMT-61" x="66.699219"/>
      <use xlink:href="#ArialMT-6e" x="122.314453"/>
      <use xlink:href="#ArialMT-20" x="177.929688"/>
      <use xlink:href="#ArialMT-4d" x="205.712891"/>
      <use xlink:href="#ArialMT-61" x="289.013672"/>
      <use xlink:href="#ArialMT-74" x="344.628906"/>
      <use xlink:href="#ArialMT-65" x="372.412109"/>
      <use xlink:href="#ArialMT-6f" x="428.027344"/>
     </g>
    </g>
   </g>
  </g>
 </g>
 <defs>
  <clipPath id="pfb33a64bf6">
   <rect x="144" y="69.12" width="892.8" height="434.88"/>
  </clipPath>
 </defs>
</svg>
