<?xml version="1.0" encoding="utf-8" standalone="no"?>
<!DOCTYPE svg PUBLIC "-//W3C//DTD SVG 1.1//EN"
  "http://www.w3.org/Graphics/SVG/1.1/DTD/svg11.dtd">
<svg xmlns:xlink="http://www.w3.org/1999/xlink" width="1152pt" height="576pt" viewBox="0 0 1152 576" xmlns="http://www.w3.org/2000/svg" version="1.1">
 <metadata>
  <rdf:RDF xmlns:dc="http://purl.org/dc/elements/1.1/" xmlns:cc="http://creativecommons.org/ns#" xmlns:rdf="http://www.w3.org/1999/02/22-rdf-syntax-ns#">
   <cc:Work>
    <dc:type rdf:resource="http://purl.org/dc/dcmitype/StillImage"/>
    <dc:date>2022-06-14T11:32:08.500231</dc:date>
    <dc:format>image/svg+xml</dc:format>
    <dc:creator>
     <cc:Agent>
      <dc:title>Matplotlib v3.5.1, https://matplotlib.org/</dc:title>
     </cc:Agent>
    </dc:creator>
   </cc:Work>
  </rdf:RDF>
 </metadata>
 <defs>
  <style type="text/css">*{stroke-linejoin: round; stroke-linecap: butt}</style>
 </defs>
 <g id="figure_1">
  <g id="patch_1">
   <path d="M 0 576 
L 1152 576 
L 1152 0 
L 0 0 
z
" style="fill: #ffffff"/>
  </g>
  <g id="axes_1">
   <g id="patch_2">
    <path d="M 144 504 
L 1036.8 504 
L 1036.8 69.12 
L 144 69.12 
z
" style="fill: #eaeaf2"/>
   </g>
   <g id="matplotlib.axis_1">
    <g id="xtick_1">
     <g id="text_1">
      <!-- Arlington -->
      <g style="fill: #262626" transform="translate(164.849006 518.157812)scale(0.1 -0.1)">
       <defs>
        <path id="ArialMT-41" d="M -9 0 
L 1750 4581 
L 2403 4581 
L 4278 0 
L 3588 0 
L 3053 1388 
L 1138 1388 
L 634 0 
L -9 0 
z
M 1313 1881 
L 2866 1881 
L 2388 3150 
Q 2169 3728 2063 4100 
Q 1975 3659 1816 3225 
L 1313 1881 
z
" transform="scale(0.015625)"/>
        <path id="ArialMT-72" d="M 416 0 
L 416 3319 
L 922 3319 
L 922 2816 
Q 1116 3169 1280 3281 
Q 1444 3394 1641 3394 
Q 1925 3394 2219 3213 
L 2025 2691 
Q 1819 2813 1613 2813 
Q 1428 2813 1281 2702 
Q 1134 2591 1072 2394 
Q 978 2094 978 1738 
L 978 0 
L 416 0 
z
" transform="scale(0.015625)"/>
        <path id="ArialMT-6c" d="M 409 0 
L 409 4581 
L 972 4581 
L 972 0 
L 409 0 
z
" transform="scale(0.015625)"/>
        <path id="ArialMT-69" d="M 425 3934 
L 425 4581 
L 988 4581 
L 988 3934 
L 425 3934 
z
M 425 0 
L 425 3319 
L 988 3319 
L 988 0 
L 425 0 
z
" transform="scale(0.015625)"/>
        <path id="ArialMT-6e" d="M 422 0 
L 422 3319 
L 928 3319 
L 928 2847 
Q 1294 3394 1984 3394 
Q 2284 3394 2536 3286 
Q 2788 3178 2913 3003 
Q 3038 2828 3088 2588 
Q 3119 2431 3119 2041 
L 3119 0 
L 2556 0 
L 2556 2019 
Q 2556 2363 2490 2533 
Q 2425 2703 2258 2804 
Q 2091 2906 1866 2906 
Q 1506 2906 1245 2678 
Q 984 2450 984 1813 
L 984 0 
L 422 0 
z
" transform="scale(0.015625)"/>
        <path id="ArialMT-67" d="M 319 -275 
L 866 -356 
Q 900 -609 1056 -725 
Q 1266 -881 1628 -881 
Q 2019 -881 2231 -725 
Q 2444 -569 2519 -288 
Q 2563 -116 2559 434 
Q 2191 0 1641 0 
Q 956 0 581 494 
Q 206 988 206 1678 
Q 206 2153 378 2554 
Q 550 2956 876 3175 
Q 1203 3394 1644 3394 
Q 2231 3394 2613 2919 
L 2613 3319 
L 3131 3319 
L 3131 450 
Q 3131 -325 2973 -648 
Q 2816 -972 2473 -1159 
Q 2131 -1347 1631 -1347 
Q 1038 -1347 672 -1080 
Q 306 -813 319 -275 
z
M 784 1719 
Q 784 1066 1043 766 
Q 1303 466 1694 466 
Q 2081 466 2343 764 
Q 2606 1063 2606 1700 
Q 2606 2309 2336 2618 
Q 2066 2928 1684 2928 
Q 1309 2928 1046 2623 
Q 784 2319 784 1719 
z
" transform="scale(0.015625)"/>
        <path id="ArialMT-74" d="M 1650 503 
L 1731 6 
Q 1494 -44 1306 -44 
Q 1000 -44 831 53 
Q 663 150 594 308 
Q 525 466 525 972 
L 525 2881 
L 113 2881 
L 113 3319 
L 525 3319 
L 525 4141 
L 1084 4478 
L 1084 3319 
L 1650 3319 
L 1650 2881 
L 1084 2881 
L 1084 941 
Q 1084 700 1114 631 
Q 1144 563 1211 522 
Q 1278 481 1403 481 
Q 1497 481 1650 503 
z
" transform="scale(0.015625)"/>
        <path id="ArialMT-6f" d="M 213 1659 
Q 213 2581 725 3025 
Q 1153 3394 1769 3394 
Q 2453 3394 2887 2945 
Q 3322 2497 3322 1706 
Q 3322 1066 3130 698 
Q 2938 331 2570 128 
Q 2203 -75 1769 -75 
Q 1072 -75 642 372 
Q 213 819 213 1659 
z
M 791 1659 
Q 791 1022 1069 705 
Q 1347 388 1769 388 
Q 2188 388 2466 706 
Q 2744 1025 2744 1678 
Q 2744 2294 2464 2611 
Q 2184 2928 1769 2928 
Q 1347 2928 1069 2612 
Q 791 2297 791 1659 
z
" transform="scale(0.015625)"/>
       </defs>
       <use xlink:href="#ArialMT-41"/>
       <use xlink:href="#ArialMT-72" x="66.699219"/>
       <use xlink:href="#ArialMT-6c" x="100"/>
       <use xlink:href="#ArialMT-69" x="122.216797"/>
       <use xlink:href="#ArialMT-6e" x="144.433594"/>
       <use xlink:href="#ArialMT-67" x="200.048828"/>
       <use xlink:href="#ArialMT-74" x="255.664062"/>
       <use xlink:href="#ArialMT-6f" x="283.447266"/>
       <use xlink:href="#ArialMT-6e" x="339.0625"/>
      </g>
     </g>
    </g>
    <g id="xtick_2">
     <g id="text_2">
      <!-- Boston -->
      <g style="fill: #262626" transform="translate(250.17983 518.157812)scale(0.1 -0.1)">
       <defs>
        <path id="ArialMT-42" d="M 469 0 
L 469 4581 
L 2188 4581 
Q 2713 4581 3030 4442 
Q 3347 4303 3526 4014 
Q 3706 3725 3706 3409 
Q 3706 3116 3547 2856 
Q 3388 2597 3066 2438 
Q 3481 2316 3704 2022 
Q 3928 1728 3928 1328 
Q 3928 1006 3792 729 
Q 3656 453 3456 303 
Q 3256 153 2954 76 
Q 2653 0 2216 0 
L 469 0 
z
M 1075 2656 
L 2066 2656 
Q 2469 2656 2644 2709 
Q 2875 2778 2992 2937 
Q 3109 3097 3109 3338 
Q 3109 3566 3000 3739 
Q 2891 3913 2687 3977 
Q 2484 4041 1991 4041 
L 1075 4041 
L 1075 2656 
z
M 1075 541 
L 2216 541 
Q 2509 541 2628 563 
Q 2838 600 2978 687 
Q 3119 775 3209 942 
Q 3300 1109 3300 1328 
Q 3300 1584 3169 1773 
Q 3038 1963 2805 2039 
Q 2572 2116 2134 2116 
L 1075 2116 
L 1075 541 
z
" transform="scale(0.015625)"/>
        <path id="ArialMT-73" d="M 197 991 
L 753 1078 
Q 800 744 1014 566 
Q 1228 388 1613 388 
Q 2000 388 2187 545 
Q 2375 703 2375 916 
Q 2375 1106 2209 1216 
Q 2094 1291 1634 1406 
Q 1016 1563 777 1677 
Q 538 1791 414 1992 
Q 291 2194 291 2438 
Q 291 2659 392 2848 
Q 494 3038 669 3163 
Q 800 3259 1026 3326 
Q 1253 3394 1513 3394 
Q 1903 3394 2198 3281 
Q 2494 3169 2634 2976 
Q 2775 2784 2828 2463 
L 2278 2388 
Q 2241 2644 2061 2787 
Q 1881 2931 1553 2931 
Q 1166 2931 1000 2803 
Q 834 2675 834 2503 
Q 834 2394 903 2306 
Q 972 2216 1119 2156 
Q 1203 2125 1616 2013 
Q 2213 1853 2448 1751 
Q 2684 1650 2818 1456 
Q 2953 1263 2953 975 
Q 2953 694 2789 445 
Q 2625 197 2315 61 
Q 2006 -75 1616 -75 
Q 969 -75 630 194 
Q 291 463 197 991 
z
" transform="scale(0.015625)"/>
       </defs>
       <use xlink:href="#ArialMT-42"/>
       <use xlink:href="#ArialMT-6f" x="66.699219"/>
       <use xlink:href="#ArialMT-73" x="122.314453"/>
       <use xlink:href="#ArialMT-74" x="172.314453"/>
       <use xlink:href="#ArialMT-6f" x="200.097656"/>
       <use xlink:href="#ArialMT-6e" x="255.712891"/>
      </g>
     </g>
    </g>
    <g id="xtick_3">
     <g id="text_3">
      <!-- Brookline -->
      <g style="fill: #262626" transform="translate(326.065341 518.157812)scale(0.1 -0.1)">
       <defs>
        <path id="ArialMT-6b" d="M 425 0 
L 425 4581 
L 988 4581 
L 988 1969 
L 2319 3319 
L 3047 3319 
L 1778 2088 
L 3175 0 
L 2481 0 
L 1384 1697 
L 988 1316 
L 988 0 
L 425 0 
z
" transform="scale(0.015625)"/>
        <path id="ArialMT-65" d="M 2694 1069 
L 3275 997 
Q 3138 488 2766 206 
Q 2394 -75 1816 -75 
Q 1088 -75 661 373 
Q 234 822 234 1631 
Q 234 2469 665 2931 
Q 1097 3394 1784 3394 
Q 2450 3394 2872 2941 
Q 3294 2488 3294 1666 
Q 3294 1616 3291 1516 
L 816 1516 
Q 847 969 1125 678 
Q 1403 388 1819 388 
Q 2128 388 2347 550 
Q 2566 713 2694 1069 
z
M 847 1978 
L 2700 1978 
Q 2663 2397 2488 2606 
Q 2219 2931 1791 2931 
Q 1403 2931 1139 2672 
Q 875 2413 847 1978 
z
" transform="scale(0.015625)"/>
       </defs>
       <use xlink:href="#ArialMT-42"/>
       <use xlink:href="#ArialMT-72" x="66.699219"/>
       <use xlink:href="#ArialMT-6f" x="100"/>
       <use xlink:href="#ArialMT-6f" x="155.615234"/>
       <use xlink:href="#ArialMT-6b" x="211.230469"/>
       <use xlink:href="#ArialMT-6c" x="261.230469"/>
       <use xlink:href="#ArialMT-69" x="283.447266"/>
       <use xlink:href="#ArialMT-6e" x="305.664062"/>
       <use xlink:href="#ArialMT-65" x="361.279297"/>
      </g>
     </g>
    </g>
    <g id="xtick_4">
     <g id="text_4">
      <!-- Cambridge -->
      <g style="fill: #262626" transform="translate(403.618821 518.279688)scale(0.1 -0.1)">
       <defs>
        <path id="ArialMT-43" d="M 3763 1606 
L 4369 1453 
Q 4178 706 3683 314 
Q 3188 -78 2472 -78 
Q 1731 -78 1267 223 
Q 803 525 561 1097 
Q 319 1669 319 2325 
Q 319 3041 592 3573 
Q 866 4106 1370 4382 
Q 1875 4659 2481 4659 
Q 3169 4659 3637 4309 
Q 4106 3959 4291 3325 
L 3694 3184 
Q 3534 3684 3231 3912 
Q 2928 4141 2469 4141 
Q 1941 4141 1586 3887 
Q 1231 3634 1087 3207 
Q 944 2781 944 2328 
Q 944 1744 1114 1308 
Q 1284 872 1643 656 
Q 2003 441 2422 441 
Q 2931 441 3284 734 
Q 3638 1028 3763 1606 
z
" transform="scale(0.015625)"/>
        <path id="ArialMT-61" d="M 2588 409 
Q 2275 144 1986 34 
Q 1697 -75 1366 -75 
Q 819 -75 525 192 
Q 231 459 231 875 
Q 231 1119 342 1320 
Q 453 1522 633 1644 
Q 813 1766 1038 1828 
Q 1203 1872 1538 1913 
Q 2219 1994 2541 2106 
Q 2544 2222 2544 2253 
Q 2544 2597 2384 2738 
Q 2169 2928 1744 2928 
Q 1347 2928 1158 2789 
Q 969 2650 878 2297 
L 328 2372 
Q 403 2725 575 2942 
Q 747 3159 1072 3276 
Q 1397 3394 1825 3394 
Q 2250 3394 2515 3294 
Q 2781 3194 2906 3042 
Q 3031 2891 3081 2659 
Q 3109 2516 3109 2141 
L 3109 1391 
Q 3109 606 3145 398 
Q 3181 191 3288 0 
L 2700 0 
Q 2613 175 2588 409 
z
M 2541 1666 
Q 2234 1541 1622 1453 
Q 1275 1403 1131 1340 
Q 988 1278 909 1158 
Q 831 1038 831 891 
Q 831 666 1001 516 
Q 1172 366 1500 366 
Q 1825 366 2078 508 
Q 2331 650 2450 897 
Q 2541 1088 2541 1459 
L 2541 1666 
z
" transform="scale(0.015625)"/>
        <path id="ArialMT-6d" d="M 422 0 
L 422 3319 
L 925 3319 
L 925 2853 
Q 1081 3097 1340 3245 
Q 1600 3394 1931 3394 
Q 2300 3394 2536 3241 
Q 2772 3088 2869 2813 
Q 3263 3394 3894 3394 
Q 4388 3394 4653 3120 
Q 4919 2847 4919 2278 
L 4919 0 
L 4359 0 
L 4359 2091 
Q 4359 2428 4304 2576 
Q 4250 2725 4106 2815 
Q 3963 2906 3769 2906 
Q 3419 2906 3187 2673 
Q 2956 2441 2956 1928 
L 2956 0 
L 2394 0 
L 2394 2156 
Q 2394 2531 2256 2718 
Q 2119 2906 1806 2906 
Q 1569 2906 1367 2781 
Q 1166 2656 1075 2415 
Q 984 2175 984 1722 
L 984 0 
L 422 0 
z
" transform="scale(0.015625)"/>
        <path id="ArialMT-62" d="M 941 0 
L 419 0 
L 419 4581 
L 981 4581 
L 981 2947 
Q 1338 3394 1891 3394 
Q 2197 3394 2470 3270 
Q 2744 3147 2920 2923 
Q 3097 2700 3197 2384 
Q 3297 2069 3297 1709 
Q 3297 856 2875 390 
Q 2453 -75 1863 -75 
Q 1275 -75 941 416 
L 941 0 
z
M 934 1684 
Q 934 1088 1097 822 
Q 1363 388 1816 388 
Q 2184 388 2453 708 
Q 2722 1028 2722 1663 
Q 2722 2313 2464 2622 
Q 2206 2931 1841 2931 
Q 1472 2931 1203 2611 
Q 934 2291 934 1684 
z
" transform="scale(0.015625)"/>
        <path id="ArialMT-64" d="M 2575 0 
L 2575 419 
Q 2259 -75 1647 -75 
Q 1250 -75 917 144 
Q 584 363 401 755 
Q 219 1147 219 1656 
Q 219 2153 384 2558 
Q 550 2963 881 3178 
Q 1213 3394 1622 3394 
Q 1922 3394 2156 3267 
Q 2391 3141 2538 2938 
L 2538 4581 
L 3097 4581 
L 3097 0 
L 2575 0 
z
M 797 1656 
Q 797 1019 1065 703 
Q 1334 388 1700 388 
Q 2069 388 2326 689 
Q 2584 991 2584 1609 
Q 2584 2291 2321 2609 
Q 2059 2928 1675 2928 
Q 1300 2928 1048 2622 
Q 797 2316 797 1656 
z
" transform="scale(0.015625)"/>
       </defs>
       <use xlink:href="#ArialMT-43"/>
       <use xlink:href="#ArialMT-61" x="72.216797"/>
       <use xlink:href="#ArialMT-6d" x="127.832031"/>
       <use xlink:href="#ArialMT-62" x="211.132812"/>
       <use xlink:href="#ArialMT-72" x="266.748047"/>
       <use xlink:href="#ArialMT-69" x="300.048828"/>
       <use xlink:href="#ArialMT-64" x="322.265625"/>
       <use xlink:href="#ArialMT-67" x="377.880859"/>
       <use xlink:href="#ArialMT-65" x="433.496094"/>
      </g>
     </g>
    </g>
    <g id="xtick_5">
     <g id="text_5">
      <!-- Chicago -->
      <g style="fill: #262626" transform="translate(490.892614 518.279688)scale(0.1 -0.1)">
       <defs>
        <path id="ArialMT-68" d="M 422 0 
L 422 4581 
L 984 4581 
L 984 2938 
Q 1378 3394 1978 3394 
Q 2347 3394 2619 3248 
Q 2891 3103 3008 2847 
Q 3125 2591 3125 2103 
L 3125 0 
L 2563 0 
L 2563 2103 
Q 2563 2525 2380 2717 
Q 2197 2909 1863 2909 
Q 1613 2909 1392 2779 
Q 1172 2650 1078 2428 
Q 984 2206 984 1816 
L 984 0 
L 422 0 
z
" transform="scale(0.015625)"/>
        <path id="ArialMT-63" d="M 2588 1216 
L 3141 1144 
Q 3050 572 2676 248 
Q 2303 -75 1759 -75 
Q 1078 -75 664 370 
Q 250 816 250 1647 
Q 250 2184 428 2587 
Q 606 2991 970 3192 
Q 1334 3394 1763 3394 
Q 2303 3394 2647 3120 
Q 2991 2847 3088 2344 
L 2541 2259 
Q 2463 2594 2264 2762 
Q 2066 2931 1784 2931 
Q 1359 2931 1093 2626 
Q 828 2322 828 1663 
Q 828 994 1084 691 
Q 1341 388 1753 388 
Q 2084 388 2306 591 
Q 2528 794 2588 1216 
z
" transform="scale(0.015625)"/>
       </defs>
       <use xlink:href="#ArialMT-43"/>
       <use xlink:href="#ArialMT-68" x="72.216797"/>
       <use xlink:href="#ArialMT-69" x="127.832031"/>
       <use xlink:href="#ArialMT-63" x="150.048828"/>
       <use xlink:href="#ArialMT-61" x="200.048828"/>
       <use xlink:href="#ArialMT-67" x="255.664062"/>
       <use xlink:href="#ArialMT-6f" x="311.279297"/>
      </g>
     </g>
    </g>
    <g id="xtick_6">
     <g id="text_6">
      <!-- Oakland -->
      <g style="fill: #262626" transform="translate(571.778125 518.157812)scale(0.1 -0.1)">
       <defs>
        <path id="ArialMT-4f" d="M 309 2231 
Q 309 3372 921 4017 
Q 1534 4663 2503 4663 
Q 3138 4663 3647 4359 
Q 4156 4056 4423 3514 
Q 4691 2972 4691 2284 
Q 4691 1588 4409 1038 
Q 4128 488 3612 205 
Q 3097 -78 2500 -78 
Q 1853 -78 1343 234 
Q 834 547 571 1087 
Q 309 1628 309 2231 
z
M 934 2222 
Q 934 1394 1379 917 
Q 1825 441 2497 441 
Q 3181 441 3623 922 
Q 4066 1403 4066 2288 
Q 4066 2847 3877 3264 
Q 3688 3681 3323 3911 
Q 2959 4141 2506 4141 
Q 1863 4141 1398 3698 
Q 934 3256 934 2222 
z
" transform="scale(0.015625)"/>
       </defs>
       <use xlink:href="#ArialMT-4f"/>
       <use xlink:href="#ArialMT-61" x="77.783203"/>
       <use xlink:href="#ArialMT-6b" x="133.398438"/>
       <use xlink:href="#ArialMT-6c" x="183.398438"/>
       <use xlink:href="#ArialMT-61" x="205.615234"/>
       <use xlink:href="#ArialMT-6e" x="261.230469"/>
       <use xlink:href="#ArialMT-64" x="316.845703"/>
      </g>
     </g>
    </g>
    <g id="xtick_7">
     <g id="text_7">
      <!-- San Francisco -->
      <g style="fill: #262626" transform="translate(639.607386 518.157812)scale(0.1 -0.1)">
       <defs>
        <path id="ArialMT-53" d="M 288 1472 
L 859 1522 
Q 900 1178 1048 958 
Q 1197 738 1509 602 
Q 1822 466 2213 466 
Q 2559 466 2825 569 
Q 3091 672 3220 851 
Q 3350 1031 3350 1244 
Q 3350 1459 3225 1620 
Q 3100 1781 2813 1891 
Q 2628 1963 1997 2114 
Q 1366 2266 1113 2400 
Q 784 2572 623 2826 
Q 463 3081 463 3397 
Q 463 3744 659 4045 
Q 856 4347 1234 4503 
Q 1613 4659 2075 4659 
Q 2584 4659 2973 4495 
Q 3363 4331 3572 4012 
Q 3781 3694 3797 3291 
L 3216 3247 
Q 3169 3681 2898 3903 
Q 2628 4125 2100 4125 
Q 1550 4125 1298 3923 
Q 1047 3722 1047 3438 
Q 1047 3191 1225 3031 
Q 1400 2872 2139 2705 
Q 2878 2538 3153 2413 
Q 3553 2228 3743 1945 
Q 3934 1663 3934 1294 
Q 3934 928 3725 604 
Q 3516 281 3123 101 
Q 2731 -78 2241 -78 
Q 1619 -78 1198 103 
Q 778 284 539 648 
Q 300 1013 288 1472 
z
" transform="scale(0.015625)"/>
        <path id="ArialMT-20" transform="scale(0.015625)"/>
        <path id="ArialMT-46" d="M 525 0 
L 525 4581 
L 3616 4581 
L 3616 4041 
L 1131 4041 
L 1131 2622 
L 3281 2622 
L 3281 2081 
L 1131 2081 
L 1131 0 
L 525 0 
z
" transform="scale(0.015625)"/>
       </defs>
       <use xlink:href="#ArialMT-53"/>
       <use xlink:href="#ArialMT-61" x="66.699219"/>
       <use xlink:href="#ArialMT-6e" x="122.314453"/>
       <use xlink:href="#ArialMT-20" x="177.929688"/>
       <use xlink:href="#ArialMT-46" x="205.712891"/>
       <use xlink:href="#ArialMT-72" x="266.796875"/>
       <use xlink:href="#ArialMT-61" x="300.097656"/>
       <use xlink:href="#ArialMT-6e" x="355.712891"/>
       <use xlink:href="#ArialMT-63" x="411.328125"/>
       <use xlink:href="#ArialMT-69" x="461.328125"/>
       <use xlink:href="#ArialMT-73" x="483.544922"/>
       <use xlink:href="#ArialMT-63" x="533.544922"/>
       <use xlink:href="#ArialMT-6f" x="583.544922"/>
      </g>
     </g>
    </g>
    <g id="xtick_8">
     <g id="text_8">
      <!-- Washington -->
      <g style="fill: #262626" transform="translate(726.512429 518.157812)scale(0.1 -0.1)">
       <defs>
        <path id="ArialMT-57" d="M 1294 0 
L 78 4581 
L 700 4581 
L 1397 1578 
Q 1509 1106 1591 641 
Q 1766 1375 1797 1488 
L 2669 4581 
L 3400 4581 
L 4056 2263 
Q 4303 1400 4413 641 
Q 4500 1075 4641 1638 
L 5359 4581 
L 5969 4581 
L 4713 0 
L 4128 0 
L 3163 3491 
Q 3041 3928 3019 4028 
Q 2947 3713 2884 3491 
L 1913 0 
L 1294 0 
z
" transform="scale(0.015625)"/>
       </defs>
       <use xlink:href="#ArialMT-57"/>
       <use xlink:href="#ArialMT-61" x="90.634766"/>
       <use xlink:href="#ArialMT-73" x="146.25"/>
       <use xlink:href="#ArialMT-68" x="196.25"/>
       <use xlink:href="#ArialMT-69" x="251.865234"/>
       <use xlink:href="#ArialMT-6e" x="274.082031"/>
       <use xlink:href="#ArialMT-67" x="329.697266"/>
       <use xlink:href="#ArialMT-74" x="385.3125"/>
       <use xlink:href="#ArialMT-6f" x="413.095703"/>
       <use xlink:href="#ArialMT-6e" x="468.710938"/>
      </g>
     </g>
    </g>
    <g id="xtick_9">
     <g id="text_9">
      <!-- Berkeley -->
      <g style="fill: #262626" transform="translate(814.438565 518.157812)scale(0.1 -0.1)">
       <defs>
        <path id="ArialMT-79" d="M 397 -1278 
L 334 -750 
Q 519 -800 656 -800 
Q 844 -800 956 -737 
Q 1069 -675 1141 -563 
Q 1194 -478 1313 -144 
Q 1328 -97 1363 -6 
L 103 3319 
L 709 3319 
L 1400 1397 
Q 1534 1031 1641 628 
Q 1738 1016 1872 1384 
L 2581 3319 
L 3144 3319 
L 1881 -56 
Q 1678 -603 1566 -809 
Q 1416 -1088 1222 -1217 
Q 1028 -1347 759 -1347 
Q 597 -1347 397 -1278 
z
" transform="scale(0.015625)"/>
       </defs>
       <use xlink:href="#ArialMT-42"/>
       <use xlink:href="#ArialMT-65" x="66.699219"/>
       <use xlink:href="#ArialMT-72" x="122.314453"/>
       <use xlink:href="#ArialMT-6b" x="155.615234"/>
       <use xlink:href="#ArialMT-65" x="205.615234"/>
       <use xlink:href="#ArialMT-6c" x="261.230469"/>
       <use xlink:href="#ArialMT-65" x="283.447266"/>
       <use xlink:href="#ArialMT-79" x="339.0625"/>
      </g>
     </g>
    </g>
    <g id="xtick_10">
     <g id="text_10">
      <!-- San Bruno -->
      <g style="fill: #262626" transform="translate(891.427983 518.157812)scale(0.1 -0.1)">
       <defs>
        <path id="ArialMT-75" d="M 2597 0 
L 2597 488 
Q 2209 -75 1544 -75 
Q 1250 -75 995 37 
Q 741 150 617 320 
Q 494 491 444 738 
Q 409 903 409 1263 
L 409 3319 
L 972 3319 
L 972 1478 
Q 972 1038 1006 884 
Q 1059 663 1231 536 
Q 1403 409 1656 409 
Q 1909 409 2131 539 
Q 2353 669 2445 892 
Q 2538 1116 2538 1541 
L 2538 3319 
L 3100 3319 
L 3100 0 
L 2597 0 
z
" transform="scale(0.015625)"/>
       </defs>
       <use xlink:href="#ArialMT-53"/>
       <use xlink:href="#ArialMT-61" x="66.699219"/>
       <use xlink:href="#ArialMT-6e" x="122.314453"/>
       <use xlink:href="#ArialMT-20" x="177.929688"/>
       <use xlink:href="#ArialMT-42" x="205.712891"/>
       <use xlink:href="#ArialMT-72" x="272.412109"/>
       <use xlink:href="#ArialMT-75" x="305.712891"/>
       <use xlink:href="#ArialMT-6e" x="361.328125"/>
       <use xlink:href="#ArialMT-6f" x="416.943359"/>
      </g>
     </g>
    </g>
    <g id="xtick_11">
     <g id="text_11">
      <!-- San Mateo -->
      <g style="fill: #262626" transform="translate(972.037713 518.157812)scale(0.1 -0.1)">
       <defs>
        <path id="ArialMT-4d" d="M 475 0 
L 475 4581 
L 1388 4581 
L 2472 1338 
Q 2622 884 2691 659 
Q 2769 909 2934 1394 
L 4031 4581 
L 4847 4581 
L 4847 0 
L 4263 0 
L 4263 3834 
L 2931 0 
L 2384 0 
L 1059 3900 
L 1059 0 
L 475 0 
z
" transform="scale(0.015625)"/>
       </defs>
       <use xlink:href="#ArialMT-53"/>
       <use xlink:href="#ArialMT-61" x="66.699219"/>
       <use xlink:href="#ArialMT-6e" x="122.314453"/>
       <use xlink:href="#ArialMT-20" x="177.929688"/>
       <use xlink:href="#ArialMT-4d" x="205.712891"/>
       <use xlink:href="#ArialMT-61" x="289.013672"/>
       <use xlink:href="#ArialMT-74" x="344.628906"/>
       <use xlink:href="#ArialMT-65" x="372.412109"/>
       <use xlink:href="#ArialMT-6f" x="428.027344"/>
      </g>
     </g>
    </g>
    <g id="text_12">
     <!-- Total Minutes Utilized -->
     <g style="fill: #262626" transform="translate(543.163281 531.542187)scale(0.1 -0.1)">
      <defs>
       <path id="ArialMT-54" d="M 1659 0 
L 1659 4041 
L 150 4041 
L 150 4581 
L 3781 4581 
L 3781 4041 
L 2266 4041 
L 2266 0 
L 1659 0 
z
" transform="scale(0.015625)"/>
       <path id="ArialMT-55" d="M 3500 4581 
L 4106 4581 
L 4106 1934 
Q 4106 1244 3950 837 
Q 3794 431 3386 176 
Q 2978 -78 2316 -78 
Q 1672 -78 1262 144 
Q 853 366 678 786 
Q 503 1206 503 1934 
L 503 4581 
L 1109 4581 
L 1109 1938 
Q 1109 1341 1220 1058 
Q 1331 775 1601 622 
Q 1872 469 2263 469 
Q 2931 469 3215 772 
Q 3500 1075 3500 1938 
L 3500 4581 
z
" transform="scale(0.015625)"/>
       <path id="ArialMT-7a" d="M 125 0 
L 125 456 
L 2238 2881 
Q 1878 2863 1603 2863 
L 250 2863 
L 250 3319 
L 2963 3319 
L 2963 2947 
L 1166 841 
L 819 456 
Q 1197 484 1528 484 
L 3063 484 
L 3063 0 
L 125 0 
z
" transform="scale(0.015625)"/>
      </defs>
      <use xlink:href="#ArialMT-54"/>
      <use xlink:href="#ArialMT-6f" x="49.958984"/>
      <use xlink:href="#ArialMT-74" x="105.574219"/>
      <use xlink:href="#ArialMT-61" x="133.357422"/>
      <use xlink:href="#ArialMT-6c" x="188.972656"/>
      <use xlink:href="#ArialMT-20" x="211.189453"/>
      <use xlink:href="#ArialMT-4d" x="238.972656"/>
      <use xlink:href="#ArialMT-69" x="322.273438"/>
      <use xlink:href="#ArialMT-6e" x="344.490234"/>
      <use xlink:href="#ArialMT-75" x="400.105469"/>
      <use xlink:href="#ArialMT-74" x="455.720703"/>
      <use xlink:href="#ArialMT-65" x="483.503906"/>
      <use xlink:href="#ArialMT-73" x="539.119141"/>
      <use xlink:href="#ArialMT-20" x="589.119141"/>
      <use xlink:href="#ArialMT-55" x="616.902344"/>
      <use xlink:href="#ArialMT-74" x="689.119141"/>
      <use xlink:href="#ArialMT-69" x="716.902344"/>
      <use xlink:href="#ArialMT-6c" x="739.119141"/>
      <use xlink:href="#ArialMT-69" x="761.335938"/>
      <use xlink:href="#ArialMT-7a" x="783.552734"/>
      <use xlink:href="#ArialMT-65" x="833.552734"/>
      <use xlink:href="#ArialMT-64" x="889.167969"/>
     </g>
    </g>
   </g>
   <g id="matplotlib.axis_2">
    <g id="ytick_1">
     <g id="line2d_1">
      <path d="M 144 504 
L 1036.8 504 
" clip-path="url(#p7ac6bd9c92)" style="fill: none; stroke: #ffffff; stroke-width: 0.8; stroke-linecap: round"/>
     </g>
     <g id="text_13">
      <!-- 0.0 -->
      <g style="fill: #262626" transform="translate(123.1 507.578906)scale(0.1 -0.1)">
       <defs>
        <path id="ArialMT-30" d="M 266 2259 
Q 266 3072 433 3567 
Q 600 4063 929 4331 
Q 1259 4600 1759 4600 
Q 2128 4600 2406 4451 
Q 2684 4303 2865 4023 
Q 3047 3744 3150 3342 
Q 3253 2941 3253 2259 
Q 3253 1453 3087 958 
Q 2922 463 2592 192 
Q 2263 -78 1759 -78 
Q 1097 -78 719 397 
Q 266 969 266 2259 
z
M 844 2259 
Q 844 1131 1108 757 
Q 1372 384 1759 384 
Q 2147 384 2411 759 
Q 2675 1134 2675 2259 
Q 2675 3391 2411 3762 
Q 2147 4134 1753 4134 
Q 1366 4134 1134 3806 
Q 844 3388 844 2259 
z
" transform="scale(0.015625)"/>
        <path id="ArialMT-2e" d="M 581 0 
L 581 641 
L 1222 641 
L 1222 0 
L 581 0 
z
" transform="scale(0.015625)"/>
       </defs>
       <use xlink:href="#ArialMT-30"/>
       <use xlink:href="#ArialMT-2e" x="55.615234"/>
       <use xlink:href="#ArialMT-30" x="83.398438"/>
      </g>
     </g>
    </g>
    <g id="ytick_2">
     <g id="line2d_2">
      <path d="M 144 432.060199 
L 1036.8 432.060199 
" clip-path="url(#p7ac6bd9c92)" style="fill: none; stroke: #ffffff; stroke-width: 0.8; stroke-linecap: round"/>
     </g>
     <g id="text_14">
      <!-- 0.2 -->
      <g style="fill: #262626" transform="translate(123.1 435.639105)scale(0.1 -0.1)">
       <defs>
        <path id="ArialMT-32" d="M 3222 541 
L 3222 0 
L 194 0 
Q 188 203 259 391 
Q 375 700 629 1000 
Q 884 1300 1366 1694 
Q 2113 2306 2375 2664 
Q 2638 3022 2638 3341 
Q 2638 3675 2398 3904 
Q 2159 4134 1775 4134 
Q 1369 4134 1125 3890 
Q 881 3647 878 3216 
L 300 3275 
Q 359 3922 746 4261 
Q 1134 4600 1788 4600 
Q 2447 4600 2831 4234 
Q 3216 3869 3216 3328 
Q 3216 3053 3103 2787 
Q 2991 2522 2730 2228 
Q 2469 1934 1863 1422 
Q 1356 997 1212 845 
Q 1069 694 975 541 
L 3222 541 
z
" transform="scale(0.015625)"/>
       </defs>
       <use xlink:href="#ArialMT-30"/>
       <use xlink:href="#ArialMT-2e" x="55.615234"/>
       <use xlink:href="#ArialMT-32" x="83.398438"/>
      </g>
     </g>
    </g>
    <g id="ytick_3">
     <g id="line2d_3">
      <path d="M 144 360.120397 
L 1036.8 360.120397 
" clip-path="url(#p7ac6bd9c92)" style="fill: none; stroke: #ffffff; stroke-width: 0.8; stroke-linecap: round"/>
     </g>
     <g id="text_15">
      <!-- 0.4 -->
      <g style="fill: #262626" transform="translate(123.1 363.699304)scale(0.1 -0.1)">
       <defs>
        <path id="ArialMT-34" d="M 2069 0 
L 2069 1097 
L 81 1097 
L 81 1613 
L 2172 4581 
L 2631 4581 
L 2631 1613 
L 3250 1613 
L 3250 1097 
L 2631 1097 
L 2631 0 
L 2069 0 
z
M 2069 1613 
L 2069 3678 
L 634 1613 
L 2069 1613 
z
" transform="scale(0.015625)"/>
       </defs>
       <use xlink:href="#ArialMT-30"/>
       <use xlink:href="#ArialMT-2e" x="55.615234"/>
       <use xlink:href="#ArialMT-34" x="83.398438"/>
      </g>
     </g>
    </g>
    <g id="ytick_4">
     <g id="line2d_4">
      <path d="M 144 288.180596 
L 1036.8 288.180596 
" clip-path="url(#p7ac6bd9c92)" style="fill: none; stroke: #ffffff; stroke-width: 0.8; stroke-linecap: round"/>
     </g>
     <g id="text_16">
      <!-- 0.6 -->
      <g style="fill: #262626" transform="translate(123.1 291.759502)scale(0.1 -0.1)">
       <defs>
        <path id="ArialMT-36" d="M 3184 3459 
L 2625 3416 
Q 2550 3747 2413 3897 
Q 2184 4138 1850 4138 
Q 1581 4138 1378 3988 
Q 1113 3794 959 3422 
Q 806 3050 800 2363 
Q 1003 2672 1297 2822 
Q 1591 2972 1913 2972 
Q 2475 2972 2870 2558 
Q 3266 2144 3266 1488 
Q 3266 1056 3080 686 
Q 2894 316 2569 119 
Q 2244 -78 1831 -78 
Q 1128 -78 684 439 
Q 241 956 241 2144 
Q 241 3472 731 4075 
Q 1159 4600 1884 4600 
Q 2425 4600 2770 4297 
Q 3116 3994 3184 3459 
z
M 888 1484 
Q 888 1194 1011 928 
Q 1134 663 1356 523 
Q 1578 384 1822 384 
Q 2178 384 2434 671 
Q 2691 959 2691 1453 
Q 2691 1928 2437 2201 
Q 2184 2475 1800 2475 
Q 1419 2475 1153 2201 
Q 888 1928 888 1484 
z
" transform="scale(0.015625)"/>
       </defs>
       <use xlink:href="#ArialMT-30"/>
       <use xlink:href="#ArialMT-2e" x="55.615234"/>
       <use xlink:href="#ArialMT-36" x="83.398438"/>
      </g>
     </g>
    </g>
    <g id="ytick_5">
     <g id="line2d_5">
      <path d="M 144 216.240795 
L 1036.8 216.240795 
" clip-path="url(#p7ac6bd9c92)" style="fill: none; stroke: #ffffff; stroke-width: 0.8; stroke-linecap: round"/>
     </g>
     <g id="text_17">
      <!-- 0.8 -->
      <g style="fill: #262626" transform="translate(123.1 219.819701)scale(0.1 -0.1)">
       <defs>
        <path id="ArialMT-38" d="M 1131 2484 
Q 781 2613 612 2850 
Q 444 3088 444 3419 
Q 444 3919 803 4259 
Q 1163 4600 1759 4600 
Q 2359 4600 2725 4251 
Q 3091 3903 3091 3403 
Q 3091 3084 2923 2848 
Q 2756 2613 2416 2484 
Q 2838 2347 3058 2040 
Q 3278 1734 3278 1309 
Q 3278 722 2862 322 
Q 2447 -78 1769 -78 
Q 1091 -78 675 323 
Q 259 725 259 1325 
Q 259 1772 486 2073 
Q 713 2375 1131 2484 
z
M 1019 3438 
Q 1019 3113 1228 2906 
Q 1438 2700 1772 2700 
Q 2097 2700 2305 2904 
Q 2513 3109 2513 3406 
Q 2513 3716 2298 3927 
Q 2084 4138 1766 4138 
Q 1444 4138 1231 3931 
Q 1019 3725 1019 3438 
z
M 838 1322 
Q 838 1081 952 856 
Q 1066 631 1291 507 
Q 1516 384 1775 384 
Q 2178 384 2440 643 
Q 2703 903 2703 1303 
Q 2703 1709 2433 1975 
Q 2163 2241 1756 2241 
Q 1359 2241 1098 1978 
Q 838 1716 838 1322 
z
" transform="scale(0.015625)"/>
       </defs>
       <use xlink:href="#ArialMT-30"/>
       <use xlink:href="#ArialMT-2e" x="55.615234"/>
       <use xlink:href="#ArialMT-38" x="83.398438"/>
      </g>
     </g>
    </g>
    <g id="ytick_6">
     <g id="line2d_6">
      <path d="M 144 144.300993 
L 1036.8 144.300993 
" clip-path="url(#p7ac6bd9c92)" style="fill: none; stroke: #ffffff; stroke-width: 0.8; stroke-linecap: round"/>
     </g>
     <g id="text_18">
      <!-- 1.0 -->
      <g style="fill: #262626" transform="translate(123.1 147.879899)scale(0.1 -0.1)">
       <defs>
        <path id="ArialMT-31" d="M 2384 0 
L 1822 0 
L 1822 3584 
Q 1619 3391 1289 3197 
Q 959 3003 697 2906 
L 697 3450 
Q 1169 3672 1522 3987 
Q 1875 4303 2022 4600 
L 2384 4600 
L 2384 0 
z
" transform="scale(0.015625)"/>
       </defs>
       <use xlink:href="#ArialMT-31"/>
       <use xlink:href="#ArialMT-2e" x="55.615234"/>
       <use xlink:href="#ArialMT-30" x="83.398438"/>
      </g>
     </g>
    </g>
    <g id="ytick_7">
     <g id="line2d_7">
      <path d="M 144 72.361192 
L 1036.8 72.361192 
" clip-path="url(#p7ac6bd9c92)" style="fill: none; stroke: #ffffff; stroke-width: 0.8; stroke-linecap: round"/>
     </g>
     <g id="text_19">
      <!-- 1.2 -->
      <g style="fill: #262626" transform="translate(123.1 75.940098)scale(0.1 -0.1)">
       <use xlink:href="#ArialMT-31"/>
       <use xlink:href="#ArialMT-2e" x="55.615234"/>
       <use xlink:href="#ArialMT-32" x="83.398438"/>
      </g>
     </g>
    </g>
    <g id="text_20">
     <!-- US State -->
     <g style="fill: #262626" transform="translate(117.1125 306.569375)rotate(-90)scale(0.1 -0.1)">
      <use xlink:href="#ArialMT-55"/>
      <use xlink:href="#ArialMT-53" x="72.216797"/>
      <use xlink:href="#ArialMT-20" x="138.916016"/>
      <use xlink:href="#ArialMT-53" x="166.699219"/>
      <use xlink:href="#ArialMT-74" x="233.398438"/>
      <use xlink:href="#ArialMT-61" x="261.181641"/>
      <use xlink:href="#ArialMT-74" x="316.796875"/>
      <use xlink:href="#ArialMT-65" x="344.580078"/>
     </g>
    </g>
   </g>
   <g id="patch_3">
    <path d="M 152.116364 504 
L 161.392208 504 
L 161.392208 427.612514 
L 152.116364 427.612514 
z
" clip-path="url(#p7ac6bd9c92)" style="fill: #3274a1; stroke: #ffffff; stroke-linejoin: miter"/>
   </g>
   <g id="patch_4">
    <path d="M 233.28 504 
L 242.555844 504 
L 242.555844 361.440843 
L 233.28 361.440843 
z
" clip-path="url(#p7ac6bd9c92)" style="fill: #3274a1; stroke: #ffffff; stroke-linejoin: miter"/>
   </g>
   <g id="patch_5">
    <path d="M 0 0 
z
" clip-path="url(#p7ac6bd9c92)" style="fill: #3274a1; stroke: #ffffff; stroke-linejoin: miter"/>
   </g>
   <g id="patch_6">
    <path d="M 395.607273 504 
L 404.883117 504 
L 404.883117 345.261136 
L 395.607273 345.261136 
z
" clip-path="url(#p7ac6bd9c92)" style="fill: #3274a1; stroke: #ffffff; stroke-linejoin: miter"/>
   </g>
   <g id="patch_7">
    <path d="M 476.770909 504 
L 486.046753 504 
L 486.046753 390.067342 
L 476.770909 390.067342 
z
" clip-path="url(#p7ac6bd9c92)" style="fill: #3274a1; stroke: #ffffff; stroke-linejoin: miter"/>
   </g>
   <g id="patch_8">
    <path d="M 557.934545 504 
L 567.21039 504 
L 567.21039 350.716541 
L 557.934545 350.716541 
z
" clip-path="url(#p7ac6bd9c92)" style="fill: #3274a1; stroke: #ffffff; stroke-linejoin: miter"/>
   </g>
   <g id="patch_9">
    <path d="M 639.098182 504 
L 648.374026 504 
L 648.374026 339.89676 
L 639.098182 339.89676 
z
" clip-path="url(#p7ac6bd9c92)" style="fill: #3274a1; stroke: #ffffff; stroke-linejoin: miter"/>
   </g>
   <g id="patch_10">
    <path d="M 720.261818 504 
L 729.537662 504 
L 729.537662 353.58055 
L 720.261818 353.58055 
z
" clip-path="url(#p7ac6bd9c92)" style="fill: #3274a1; stroke: #ffffff; stroke-linejoin: miter"/>
   </g>
   <g id="patch_11">
    <path d="M 801.425455 504 
L 810.701299 504 
L 810.701299 318.059837 
L 801.425455 318.059837 
z
" clip-path="url(#p7ac6bd9c92)" style="fill: #3274a1; stroke: #ffffff; stroke-linejoin: miter"/>
   </g>
   <g id="patch_12">
    <path d="M 882.589091 504 
L 891.864935 504 
L 891.864935 328.779578 
L 882.589091 328.779578 
z
" clip-path="url(#p7ac6bd9c92)" style="fill: #3274a1; stroke: #ffffff; stroke-linejoin: miter"/>
   </g>
   <g id="patch_13">
    <path d="M 963.752727 504 
L 973.028571 504 
L 973.028571 272.985084 
L 963.752727 272.985084 
z
" clip-path="url(#p7ac6bd9c92)" style="fill: #3274a1; stroke: #ffffff; stroke-linejoin: miter"/>
   </g>
   <g id="patch_14">
    <path d="M 161.392208 504 
L 170.668052 504 
L 170.668052 476.344934 
L 161.392208 476.344934 
z
" clip-path="url(#p7ac6bd9c92)" style="fill: #b5c8e1; stroke: #ffffff; stroke-linejoin: miter"/>
   </g>
   <g id="patch_15">
    <path d="M 242.555844 504 
L 251.831688 504 
L 251.831688 435.044989 
L 242.555844 435.044989 
z
" clip-path="url(#p7ac6bd9c92)" style="fill: #b5c8e1; stroke: #ffffff; stroke-linejoin: miter"/>
   </g>
   <g id="patch_16">
    <path d="M 0 0 
z
" clip-path="url(#p7ac6bd9c92)" style="fill: #b5c8e1; stroke: #ffffff; stroke-linejoin: miter"/>
   </g>
   <g id="patch_17">
    <path d="M 404.883117 504 
L 414.158961 504 
L 414.158961 412.356951 
L 404.883117 412.356951 
z
" clip-path="url(#p7ac6bd9c92)" style="fill: #b5c8e1; stroke: #ffffff; stroke-linejoin: miter"/>
   </g>
   <g id="patch_18">
    <path d="M 486.046753 504 
L 495.322597 504 
L 495.322597 456.263295 
L 486.046753 456.263295 
z
" clip-path="url(#p7ac6bd9c92)" style="fill: #b5c8e1; stroke: #ffffff; stroke-linejoin: miter"/>
   </g>
   <g id="patch_19">
    <path d="M 567.21039 504 
L 576.486234 504 
L 576.486234 385.843976 
L 567.21039 385.843976 
z
" clip-path="url(#p7ac6bd9c92)" style="fill: #b5c8e1; stroke: #ffffff; stroke-linejoin: miter"/>
   </g>
   <g id="patch_20">
    <path d="M 648.374026 504 
L 657.64987 504 
L 657.64987 410.560371 
L 648.374026 410.560371 
z
" clip-path="url(#p7ac6bd9c92)" style="fill: #b5c8e1; stroke: #ffffff; stroke-linejoin: miter"/>
   </g>
   <g id="patch_21">
    <path d="M 729.537662 504 
L 738.813506 504 
L 738.813506 430.161888 
L 729.537662 430.161888 
z
" clip-path="url(#p7ac6bd9c92)" style="fill: #b5c8e1; stroke: #ffffff; stroke-linejoin: miter"/>
   </g>
   <g id="patch_22">
    <path d="M 810.701299 504 
L 819.977143 504 
L 819.977143 338.58844 
L 810.701299 338.58844 
z
" clip-path="url(#p7ac6bd9c92)" style="fill: #b5c8e1; stroke: #ffffff; stroke-linejoin: miter"/>
   </g>
   <g id="patch_23">
    <path d="M 0 0 
z
" clip-path="url(#p7ac6bd9c92)" style="fill: #b5c8e1; stroke: #ffffff; stroke-linejoin: miter"/>
   </g>
   <g id="patch_24">
    <path d="M 973.028571 504 
L 982.304416 504 
L 982.304416 303.981694 
L 973.028571 303.981694 
z
" clip-path="url(#p7ac6bd9c92)" style="fill: #b5c8e1; stroke: #ffffff; stroke-linejoin: miter"/>
   </g>
   <g id="patch_25">
    <path d="M 170.668052 504 
L 179.943896 504 
L 179.943896 489.60163 
L 170.668052 489.60163 
z
" clip-path="url(#p7ac6bd9c92)" style="fill: #e1812c; stroke: #ffffff; stroke-linejoin: miter"/>
   </g>
   <g id="patch_26">
    <path d="M 251.831688 504 
L 261.107532 504 
L 261.107532 454.725716 
L 251.831688 454.725716 
z
" clip-path="url(#p7ac6bd9c92)" style="fill: #e1812c; stroke: #ffffff; stroke-linejoin: miter"/>
   </g>
   <g id="patch_27">
    <path d="M 332.995325 504 
L 342.271169 504 
L 342.271169 463.420238 
L 332.995325 463.420238 
z
" clip-path="url(#p7ac6bd9c92)" style="fill: #e1812c; stroke: #ffffff; stroke-linejoin: miter"/>
   </g>
   <g id="patch_28">
    <path d="M 414.158961 504 
L 423.434805 504 
L 423.434805 449.215495 
L 414.158961 449.215495 
z
" clip-path="url(#p7ac6bd9c92)" style="fill: #e1812c; stroke: #ffffff; stroke-linejoin: miter"/>
   </g>
   <g id="patch_29">
    <path d="M 495.322597 504 
L 504.598442 504 
L 504.598442 462.875827 
L 495.322597 462.875827 
z
" clip-path="url(#p7ac6bd9c92)" style="fill: #e1812c; stroke: #ffffff; stroke-linejoin: miter"/>
   </g>
   <g id="patch_30">
    <path d="M 576.486234 504 
L 585.762078 504 
L 585.762078 385.577192 
L 576.486234 385.577192 
z
" clip-path="url(#p7ac6bd9c92)" style="fill: #e1812c; stroke: #ffffff; stroke-linejoin: miter"/>
   </g>
   <g id="patch_31">
    <path d="M 657.64987 504 
L 666.925714 504 
L 666.925714 418.940359 
L 657.64987 418.940359 
z
" clip-path="url(#p7ac6bd9c92)" style="fill: #e1812c; stroke: #ffffff; stroke-linejoin: miter"/>
   </g>
   <g id="patch_32">
    <path d="M 738.813506 504 
L 748.089351 504 
L 748.089351 445.938442 
L 738.813506 445.938442 
z
" clip-path="url(#p7ac6bd9c92)" style="fill: #e1812c; stroke: #ffffff; stroke-linejoin: miter"/>
   </g>
   <g id="patch_33">
    <path d="M 819.977143 504 
L 829.252987 504 
L 829.252987 334.755375 
L 819.977143 334.755375 
z
" clip-path="url(#p7ac6bd9c92)" style="fill: #e1812c; stroke: #ffffff; stroke-linejoin: miter"/>
   </g>
   <g id="patch_34">
    <path d="M 901.140779 504 
L 910.416623 504 
L 910.416623 314.890486 
L 901.140779 314.890486 
z
" clip-path="url(#p7ac6bd9c92)" style="fill: #e1812c; stroke: #ffffff; stroke-linejoin: miter"/>
   </g>
   <g id="patch_35">
    <path d="M 982.304416 504 
L 991.58026 504 
L 991.58026 306.372663 
L 982.304416 306.372663 
z
" clip-path="url(#p7ac6bd9c92)" style="fill: #e1812c; stroke: #ffffff; stroke-linejoin: miter"/>
   </g>
   <g id="patch_36">
    <path d="M 179.943896 504 
L 189.21974 504 
L 189.21974 498.538983 
L 179.943896 498.538983 
z
" clip-path="url(#p7ac6bd9c92)" style="fill: #eebb89; stroke: #ffffff; stroke-linejoin: miter"/>
   </g>
   <g id="patch_37">
    <path d="M 261.107532 504 
L 270.383377 504 
L 270.383377 452.208794 
L 261.107532 452.208794 
z
" clip-path="url(#p7ac6bd9c92)" style="fill: #eebb89; stroke: #ffffff; stroke-linejoin: miter"/>
   </g>
   <g id="patch_38">
    <path d="M 342.271169 504 
L 351.547013 504 
L 351.547013 456.813378 
L 342.271169 456.813378 
z
" clip-path="url(#p7ac6bd9c92)" style="fill: #eebb89; stroke: #ffffff; stroke-linejoin: miter"/>
   </g>
   <g id="patch_39">
    <path d="M 423.434805 504 
L 432.710649 504 
L 432.710649 465.282399 
L 423.434805 465.282399 
z
" clip-path="url(#p7ac6bd9c92)" style="fill: #eebb89; stroke: #ffffff; stroke-linejoin: miter"/>
   </g>
   <g id="patch_40">
    <path d="M 504.598442 504 
L 513.874286 504 
L 513.874286 453.908226 
L 504.598442 453.908226 
z
" clip-path="url(#p7ac6bd9c92)" style="fill: #eebb89; stroke: #ffffff; stroke-linejoin: miter"/>
   </g>
   <g id="patch_41">
    <path d="M 585.762078 504 
L 595.037922 504 
L 595.037922 385.435137 
L 585.762078 385.435137 
z
" clip-path="url(#p7ac6bd9c92)" style="fill: #eebb89; stroke: #ffffff; stroke-linejoin: miter"/>
   </g>
   <g id="patch_42">
    <path d="M 666.925714 504 
L 676.201558 504 
L 676.201558 418.495322 
L 666.925714 418.495322 
z
" clip-path="url(#p7ac6bd9c92)" style="fill: #eebb89; stroke: #ffffff; stroke-linejoin: miter"/>
   </g>
   <g id="patch_43">
    <path d="M 748.089351 504 
L 757.365195 504 
L 757.365195 454.222797 
L 748.089351 454.222797 
z
" clip-path="url(#p7ac6bd9c92)" style="fill: #eebb89; stroke: #ffffff; stroke-linejoin: miter"/>
   </g>
   <g id="patch_44">
    <path d="M 0 0 
z
" clip-path="url(#p7ac6bd9c92)" style="fill: #eebb89; stroke: #ffffff; stroke-linejoin: miter"/>
   </g>
   <g id="patch_45">
    <path d="M 910.416623 504 
L 919.692468 504 
L 919.692468 324.61843 
L 910.416623 324.61843 
z
" clip-path="url(#p7ac6bd9c92)" style="fill: #eebb89; stroke: #ffffff; stroke-linejoin: miter"/>
   </g>
   <g id="patch_46">
    <path d="M 0 0 
z
" clip-path="url(#p7ac6bd9c92)" style="fill: #eebb89; stroke: #ffffff; stroke-linejoin: miter"/>
   </g>
   <g id="patch_47">
    <path d="M 189.21974 504 
L 198.495584 504 
L 198.495584 481.634337 
L 189.21974 481.634337 
z
" clip-path="url(#p7ac6bd9c92)" style="fill: #3a923a; stroke: #ffffff; stroke-linejoin: miter"/>
   </g>
   <g id="patch_48">
    <path d="M 270.383377 504 
L 279.659221 504 
L 279.659221 445.173556 
L 270.383377 445.173556 
z
" clip-path="url(#p7ac6bd9c92)" style="fill: #3a923a; stroke: #ffffff; stroke-linejoin: miter"/>
   </g>
   <g id="patch_49">
    <path d="M 351.547013 504 
L 360.822857 504 
L 360.822857 454.489236 
L 351.547013 454.489236 
z
" clip-path="url(#p7ac6bd9c92)" style="fill: #3a923a; stroke: #ffffff; stroke-linejoin: miter"/>
   </g>
   <g id="patch_50">
    <path d="M 432.710649 504 
L 441.986494 504 
L 441.986494 453.552946 
L 432.710649 453.552946 
z
" clip-path="url(#p7ac6bd9c92)" style="fill: #3a923a; stroke: #ffffff; stroke-linejoin: miter"/>
   </g>
   <g id="patch_51">
    <path d="M 513.874286 504 
L 523.15013 504 
L 523.15013 455.326306 
L 513.874286 455.326306 
z
" clip-path="url(#p7ac6bd9c92)" style="fill: #3a923a; stroke: #ffffff; stroke-linejoin: miter"/>
   </g>
   <g id="patch_52">
    <path d="M 595.037922 504 
L 604.313766 504 
L 604.313766 375.567441 
L 595.037922 375.567441 
z
" clip-path="url(#p7ac6bd9c92)" style="fill: #3a923a; stroke: #ffffff; stroke-linejoin: miter"/>
   </g>
   <g id="patch_53">
    <path d="M 676.201558 504 
L 685.477403 504 
L 685.477403 416.444718 
L 676.201558 416.444718 
z
" clip-path="url(#p7ac6bd9c92)" style="fill: #3a923a; stroke: #ffffff; stroke-linejoin: miter"/>
   </g>
   <g id="patch_54">
    <path d="M 757.365195 504 
L 766.641039 504 
L 766.641039 448.840032 
L 757.365195 448.840032 
z
" clip-path="url(#p7ac6bd9c92)" style="fill: #3a923a; stroke: #ffffff; stroke-linejoin: miter"/>
   </g>
   <g id="patch_55">
    <path d="M 0 0 
z
" clip-path="url(#p7ac6bd9c92)" style="fill: #3a923a; stroke: #ffffff; stroke-linejoin: miter"/>
   </g>
   <g id="patch_56">
    <path d="M 919.692468 504 
L 928.968312 504 
L 928.968312 332.301176 
L 919.692468 332.301176 
z
" clip-path="url(#p7ac6bd9c92)" style="fill: #3a923a; stroke: #ffffff; stroke-linejoin: miter"/>
   </g>
   <g id="patch_57">
    <path d="M 1000.856104 504 
L 1010.131948 504 
L 1010.131948 317.236399 
L 1000.856104 317.236399 
z
" clip-path="url(#p7ac6bd9c92)" style="fill: #3a923a; stroke: #ffffff; stroke-linejoin: miter"/>
   </g>
   <g id="patch_58">
    <path d="M 198.495584 504 
L 207.771429 504 
L 207.771429 478.142191 
L 198.495584 478.142191 
z
" clip-path="url(#p7ac6bd9c92)" style="fill: #9fd495; stroke: #ffffff; stroke-linejoin: miter"/>
   </g>
   <g id="patch_59">
    <path d="M 279.659221 504 
L 288.935065 504 
L 288.935065 424.647953 
L 279.659221 424.647953 
z
" clip-path="url(#p7ac6bd9c92)" style="fill: #9fd495; stroke: #ffffff; stroke-linejoin: miter"/>
   </g>
   <g id="patch_60">
    <path d="M 360.822857 504 
L 370.098701 504 
L 370.098701 402.014435 
L 360.822857 402.014435 
z
" clip-path="url(#p7ac6bd9c92)" style="fill: #9fd495; stroke: #ffffff; stroke-linejoin: miter"/>
   </g>
   <g id="patch_61">
    <path d="M 441.986494 504 
L 451.262338 504 
L 451.262338 406.332921 
L 441.986494 406.332921 
z
" clip-path="url(#p7ac6bd9c92)" style="fill: #9fd495; stroke: #ffffff; stroke-linejoin: miter"/>
   </g>
   <g id="patch_62">
    <path d="M 523.15013 504 
L 532.425974 504 
L 532.425974 452.112004 
L 523.15013 452.112004 
z
" clip-path="url(#p7ac6bd9c92)" style="fill: #9fd495; stroke: #ffffff; stroke-linejoin: miter"/>
   </g>
   <g id="patch_63">
    <path d="M 604.313766 504 
L 613.58961 504 
L 613.58961 365.84011 
L 604.313766 365.84011 
z
" clip-path="url(#p7ac6bd9c92)" style="fill: #9fd495; stroke: #ffffff; stroke-linejoin: miter"/>
   </g>
   <g id="patch_64">
    <path d="M 685.477403 504 
L 694.753247 504 
L 694.753247 402.320527 
L 685.477403 402.320527 
z
" clip-path="url(#p7ac6bd9c92)" style="fill: #9fd495; stroke: #ffffff; stroke-linejoin: miter"/>
   </g>
   <g id="patch_65">
    <path d="M 766.641039 504 
L 775.916883 504 
L 775.916883 425.706279 
L 766.641039 425.706279 
z
" clip-path="url(#p7ac6bd9c92)" style="fill: #9fd495; stroke: #ffffff; stroke-linejoin: miter"/>
   </g>
   <g id="patch_66">
    <path d="M 847.804675 504 
L 857.080519 504 
L 857.080519 324.477083 
L 847.804675 324.477083 
z
" clip-path="url(#p7ac6bd9c92)" style="fill: #9fd495; stroke: #ffffff; stroke-linejoin: miter"/>
   </g>
   <g id="patch_67">
    <path d="M 928.968312 504 
L 938.244156 504 
L 938.244156 307.068834 
L 928.968312 307.068834 
z
" clip-path="url(#p7ac6bd9c92)" style="fill: #9fd495; stroke: #ffffff; stroke-linejoin: miter"/>
   </g>
   <g id="patch_68">
    <path d="M 1010.131948 504 
L 1019.407792 504 
L 1019.407792 286.026499 
L 1010.131948 286.026499 
z
" clip-path="url(#p7ac6bd9c92)" style="fill: #9fd495; stroke: #ffffff; stroke-linejoin: miter"/>
   </g>
   <g id="patch_69">
    <path d="M 207.771429 504 
L 217.047273 504 
L 217.047273 415.382337 
L 207.771429 415.382337 
z
" clip-path="url(#p7ac6bd9c92)" style="fill: #c03d3e; stroke: #ffffff; stroke-linejoin: miter"/>
   </g>
   <g id="patch_70">
    <path d="M 288.935065 504 
L 298.210909 504 
L 298.210909 360.365818 
L 288.935065 360.365818 
z
" clip-path="url(#p7ac6bd9c92)" style="fill: #c03d3e; stroke: #ffffff; stroke-linejoin: miter"/>
   </g>
   <g id="patch_71">
    <path d="M 370.098701 504 
L 379.374545 504 
L 379.374545 342.662658 
L 370.098701 342.662658 
z
" clip-path="url(#p7ac6bd9c92)" style="fill: #c03d3e; stroke: #ffffff; stroke-linejoin: miter"/>
   </g>
   <g id="patch_72">
    <path d="M 451.262338 504 
L 460.538182 504 
L 460.538182 354.334512 
L 451.262338 354.334512 
z
" clip-path="url(#p7ac6bd9c92)" style="fill: #c03d3e; stroke: #ffffff; stroke-linejoin: miter"/>
   </g>
   <g id="patch_73">
    <path d="M 532.425974 504 
L 541.701818 504 
L 541.701818 384.032251 
L 532.425974 384.032251 
z
" clip-path="url(#p7ac6bd9c92)" style="fill: #c03d3e; stroke: #ffffff; stroke-linejoin: miter"/>
   </g>
   <g id="patch_74">
    <path d="M 613.58961 504 
L 622.865455 504 
L 622.865455 329.969972 
L 613.58961 329.969972 
z
" clip-path="url(#p7ac6bd9c92)" style="fill: #c03d3e; stroke: #ffffff; stroke-linejoin: miter"/>
   </g>
   <g id="patch_75">
    <path d="M 694.753247 504 
L 704.029091 504 
L 704.029091 331.581102 
L 694.753247 331.581102 
z
" clip-path="url(#p7ac6bd9c92)" style="fill: #c03d3e; stroke: #ffffff; stroke-linejoin: miter"/>
   </g>
   <g id="patch_76">
    <path d="M 775.916883 504 
L 785.192727 504 
L 785.192727 356.226211 
L 775.916883 356.226211 
z
" clip-path="url(#p7ac6bd9c92)" style="fill: #c03d3e; stroke: #ffffff; stroke-linejoin: miter"/>
   </g>
   <g id="patch_77">
    <path d="M 857.080519 504 
L 866.356364 504 
L 866.356364 308.92381 
L 857.080519 308.92381 
z
" clip-path="url(#p7ac6bd9c92)" style="fill: #c03d3e; stroke: #ffffff; stroke-linejoin: miter"/>
   </g>
   <g id="patch_78">
    <path d="M 0 0 
z
" clip-path="url(#p7ac6bd9c92)" style="fill: #c03d3e; stroke: #ffffff; stroke-linejoin: miter"/>
   </g>
   <g id="patch_79">
    <path d="M 1019.407792 504 
L 1028.683636 504 
L 1028.683636 262.62958 
L 1019.407792 262.62958 
z
" clip-path="url(#p7ac6bd9c92)" style="fill: #c03d3e; stroke: #ffffff; stroke-linejoin: miter"/>
   </g>
   <g id="line2d_8">
    <path d="M 156.754286 435.678239 
L 156.754286 418.7082 
" clip-path="url(#p7ac6bd9c92)" style="fill: none; stroke: #424242; stroke-width: 2.7; stroke-linecap: round"/>
   </g>
   <g id="line2d_9">
    <path d="M 237.917922 366.432825 
L 237.917922 355.987489 
" clip-path="url(#p7ac6bd9c92)" style="fill: none; stroke: #424242; stroke-width: 2.7; stroke-linecap: round"/>
   </g>
   <g id="line2d_10">
    <path clip-path="url(#p7ac6bd9c92)" style="fill: none; stroke: #424242; stroke-width: 2.7; stroke-linecap: round"/>
   </g>
   <g id="line2d_11">
    <path d="M 400.245195 354.710507 
L 400.245195 336.19853 
" clip-path="url(#p7ac6bd9c92)" style="fill: none; stroke: #424242; stroke-width: 2.7; stroke-linecap: round"/>
   </g>
   <g id="line2d_12">
    <path d="M 481.408831 394.64504 
L 481.408831 385.781107 
" clip-path="url(#p7ac6bd9c92)" style="fill: none; stroke: #424242; stroke-width: 2.7; stroke-linecap: round"/>
   </g>
   <g id="line2d_13">
    <path d="M 562.572468 358.854617 
L 562.572468 342.77041 
" clip-path="url(#p7ac6bd9c92)" style="fill: none; stroke: #424242; stroke-width: 2.7; stroke-linecap: round"/>
   </g>
   <g id="line2d_14">
    <path d="M 643.736104 343.812019 
L 643.736104 335.723773 
" clip-path="url(#p7ac6bd9c92)" style="fill: none; stroke: #424242; stroke-width: 2.7; stroke-linecap: round"/>
   </g>
   <g id="line2d_15">
    <path d="M 724.89974 357.997822 
L 724.89974 349.124135 
" clip-path="url(#p7ac6bd9c92)" style="fill: none; stroke: #424242; stroke-width: 2.7; stroke-linecap: round"/>
   </g>
   <g id="line2d_16">
    <path d="M 806.063377 330.187637 
L 806.063377 306.030557 
" clip-path="url(#p7ac6bd9c92)" style="fill: none; stroke: #424242; stroke-width: 2.7; stroke-linecap: round"/>
   </g>
   <g id="line2d_17">
    <path d="M 887.227013 345.394546 
L 887.227013 313.280721 
" clip-path="url(#p7ac6bd9c92)" style="fill: none; stroke: #424242; stroke-width: 2.7; stroke-linecap: round"/>
   </g>
   <g id="line2d_18">
    <path d="M 968.390649 290.722471 
L 968.390649 256.557307 
" clip-path="url(#p7ac6bd9c92)" style="fill: none; stroke: #424242; stroke-width: 2.7; stroke-linecap: round"/>
   </g>
   <g id="line2d_19">
    <path d="M 166.03013 482.304051 
L 166.03013 470.209538 
" clip-path="url(#p7ac6bd9c92)" style="fill: none; stroke: #424242; stroke-width: 2.7; stroke-linecap: round"/>
   </g>
   <g id="line2d_20">
    <path d="M 247.193766 438.255849 
L 247.193766 431.442468 
" clip-path="url(#p7ac6bd9c92)" style="fill: none; stroke: #424242; stroke-width: 2.7; stroke-linecap: round"/>
   </g>
   <g id="line2d_21">
    <path clip-path="url(#p7ac6bd9c92)" style="fill: none; stroke: #424242; stroke-width: 2.7; stroke-linecap: round"/>
   </g>
   <g id="line2d_22">
    <path d="M 409.521039 420.213012 
L 409.521039 404.92401 
" clip-path="url(#p7ac6bd9c92)" style="fill: none; stroke: #424242; stroke-width: 2.7; stroke-linecap: round"/>
   </g>
   <g id="line2d_23">
    <path d="M 490.684675 459.794584 
L 490.684675 452.4422 
" clip-path="url(#p7ac6bd9c92)" style="fill: none; stroke: #424242; stroke-width: 2.7; stroke-linecap: round"/>
   </g>
   <g id="line2d_24">
    <path d="M 571.848312 392.859762 
L 571.848312 379.399206 
" clip-path="url(#p7ac6bd9c92)" style="fill: none; stroke: #424242; stroke-width: 2.7; stroke-linecap: round"/>
   </g>
   <g id="line2d_25">
    <path d="M 653.011948 413.568244 
L 653.011948 407.554316 
" clip-path="url(#p7ac6bd9c92)" style="fill: none; stroke: #424242; stroke-width: 2.7; stroke-linecap: round"/>
   </g>
   <g id="line2d_26">
    <path d="M 734.175584 433.398322 
L 734.175584 426.632984 
" clip-path="url(#p7ac6bd9c92)" style="fill: none; stroke: #424242; stroke-width: 2.7; stroke-linecap: round"/>
   </g>
   <g id="line2d_27">
    <path d="M 815.339221 350.36535 
L 815.339221 327.684445 
" clip-path="url(#p7ac6bd9c92)" style="fill: none; stroke: #424242; stroke-width: 2.7; stroke-linecap: round"/>
   </g>
   <g id="line2d_28">
    <path d="M 896.502857 89.828571 
" clip-path="url(#p7ac6bd9c92)" style="fill: none; stroke: #424242; stroke-width: 2.7; stroke-linecap: round"/>
   </g>
   <g id="line2d_29">
    <path d="M 977.666494 320.977248 
L 977.666494 286.885988 
" clip-path="url(#p7ac6bd9c92)" style="fill: none; stroke: #424242; stroke-width: 2.7; stroke-linecap: round"/>
   </g>
   <g id="line2d_30">
    <path d="M 175.305974 493.896095 
L 175.305974 485.559501 
" clip-path="url(#p7ac6bd9c92)" style="fill: none; stroke: #424242; stroke-width: 2.7; stroke-linecap: round"/>
   </g>
   <g id="line2d_31">
    <path d="M 256.46961 457.438809 
L 256.46961 451.907626 
" clip-path="url(#p7ac6bd9c92)" style="fill: none; stroke: #424242; stroke-width: 2.7; stroke-linecap: round"/>
   </g>
   <g id="line2d_32">
    <path d="M 337.633247 469.75271 
L 337.633247 457.006607 
" clip-path="url(#p7ac6bd9c92)" style="fill: none; stroke: #424242; stroke-width: 2.7; stroke-linecap: round"/>
   </g>
   <g id="line2d_33">
    <path d="M 418.796883 455.722702 
L 418.796883 442.701937 
" clip-path="url(#p7ac6bd9c92)" style="fill: none; stroke: #424242; stroke-width: 2.7; stroke-linecap: round"/>
   </g>
   <g id="line2d_34">
    <path d="M 499.960519 465.843062 
L 499.960519 460.211253 
" clip-path="url(#p7ac6bd9c92)" style="fill: none; stroke: #424242; stroke-width: 2.7; stroke-linecap: round"/>
   </g>
   <g id="line2d_35">
    <path d="M 581.124156 391.825539 
L 581.124156 378.77396 
" clip-path="url(#p7ac6bd9c92)" style="fill: none; stroke: #424242; stroke-width: 2.7; stroke-linecap: round"/>
   </g>
   <g id="line2d_36">
    <path d="M 662.287792 421.888768 
L 662.287792 415.96603 
" clip-path="url(#p7ac6bd9c92)" style="fill: none; stroke: #424242; stroke-width: 2.7; stroke-linecap: round"/>
   </g>
   <g id="line2d_37">
    <path d="M 743.451429 448.513234 
L 743.451429 443.037827 
" clip-path="url(#p7ac6bd9c92)" style="fill: none; stroke: #424242; stroke-width: 2.7; stroke-linecap: round"/>
   </g>
   <g id="line2d_38">
    <path d="M 824.615065 345.951007 
L 824.615065 323.035742 
" clip-path="url(#p7ac6bd9c92)" style="fill: none; stroke: #424242; stroke-width: 2.7; stroke-linecap: round"/>
   </g>
   <g id="line2d_39">
    <path d="M 905.778701 329.61561 
L 905.778701 299.807314 
" clip-path="url(#p7ac6bd9c92)" style="fill: none; stroke: #424242; stroke-width: 2.7; stroke-linecap: round"/>
   </g>
   <g id="line2d_40">
    <path d="M 986.942338 323.921556 
L 986.942338 288.145005 
" clip-path="url(#p7ac6bd9c92)" style="fill: none; stroke: #424242; stroke-width: 2.7; stroke-linecap: round"/>
   </g>
   <g id="line2d_41">
    <path d="M 184.581818 500.99644 
L 184.581818 495.717457 
" clip-path="url(#p7ac6bd9c92)" style="fill: none; stroke: #424242; stroke-width: 2.7; stroke-linecap: round"/>
   </g>
   <g id="line2d_42">
    <path d="M 265.745455 455.136678 
L 265.745455 449.405126 
" clip-path="url(#p7ac6bd9c92)" style="fill: none; stroke: #424242; stroke-width: 2.7; stroke-linecap: round"/>
   </g>
   <g id="line2d_43">
    <path d="M 346.909091 463.86517 
L 346.909091 449.840192 
" clip-path="url(#p7ac6bd9c92)" style="fill: none; stroke: #424242; stroke-width: 2.7; stroke-linecap: round"/>
   </g>
   <g id="line2d_44">
    <path d="M 428.072727 470.727842 
L 428.072727 459.91158 
" clip-path="url(#p7ac6bd9c92)" style="fill: none; stroke: #424242; stroke-width: 2.7; stroke-linecap: round"/>
   </g>
   <g id="line2d_45">
    <path d="M 509.236364 457.279198 
L 509.236364 450.772576 
" clip-path="url(#p7ac6bd9c92)" style="fill: none; stroke: #424242; stroke-width: 2.7; stroke-linecap: round"/>
   </g>
   <g id="line2d_46">
    <path d="M 590.4 391.920545 
L 590.4 378.878125 
" clip-path="url(#p7ac6bd9c92)" style="fill: none; stroke: #424242; stroke-width: 2.7; stroke-linecap: round"/>
   </g>
   <g id="line2d_47">
    <path d="M 671.563636 421.311524 
L 671.563636 415.649738 
" clip-path="url(#p7ac6bd9c92)" style="fill: none; stroke: #424242; stroke-width: 2.7; stroke-linecap: round"/>
   </g>
   <g id="line2d_48">
    <path d="M 752.727273 456.384847 
L 752.727273 452.12438 
" clip-path="url(#p7ac6bd9c92)" style="fill: none; stroke: #424242; stroke-width: 2.7; stroke-linecap: round"/>
   </g>
   <g id="line2d_49">
    <path clip-path="url(#p7ac6bd9c92)" style="fill: none; stroke: #424242; stroke-width: 2.7; stroke-linecap: round"/>
   </g>
   <g id="line2d_50">
    <path d="M 915.054545 338.693962 
L 915.054545 308.509512 
" clip-path="url(#p7ac6bd9c92)" style="fill: none; stroke: #424242; stroke-width: 2.7; stroke-linecap: round"/>
   </g>
   <g id="line2d_51">
    <path clip-path="url(#p7ac6bd9c92)" style="fill: none; stroke: #424242; stroke-width: 2.7; stroke-linecap: round"/>
   </g>
   <g id="line2d_52">
    <path d="M 193.857662 486.717442 
L 193.857662 476.086821 
" clip-path="url(#p7ac6bd9c92)" style="fill: none; stroke: #424242; stroke-width: 2.7; stroke-linecap: round"/>
   </g>
   <g id="line2d_53">
    <path d="M 275.021299 448.679867 
L 275.021299 441.764511 
" clip-path="url(#p7ac6bd9c92)" style="fill: none; stroke: #424242; stroke-width: 2.7; stroke-linecap: round"/>
   </g>
   <g id="line2d_54">
    <path d="M 356.184935 461.872848 
L 356.184935 447.893275 
" clip-path="url(#p7ac6bd9c92)" style="fill: none; stroke: #424242; stroke-width: 2.7; stroke-linecap: round"/>
   </g>
   <g id="line2d_55">
    <path d="M 437.348571 460.551366 
L 437.348571 447.077302 
" clip-path="url(#p7ac6bd9c92)" style="fill: none; stroke: #424242; stroke-width: 2.7; stroke-linecap: round"/>
   </g>
   <g id="line2d_56">
    <path d="M 518.512208 458.411767 
L 518.512208 452.204819 
" clip-path="url(#p7ac6bd9c92)" style="fill: none; stroke: #424242; stroke-width: 2.7; stroke-linecap: round"/>
   </g>
   <g id="line2d_57">
    <path d="M 599.675844 382.065044 
L 599.675844 368.497575 
" clip-path="url(#p7ac6bd9c92)" style="fill: none; stroke: #424242; stroke-width: 2.7; stroke-linecap: round"/>
   </g>
   <g id="line2d_58">
    <path d="M 680.839481 419.685455 
L 680.839481 413.459959 
" clip-path="url(#p7ac6bd9c92)" style="fill: none; stroke: #424242; stroke-width: 2.7; stroke-linecap: round"/>
   </g>
   <g id="line2d_59">
    <path d="M 762.003117 451.412496 
L 762.003117 446.231662 
" clip-path="url(#p7ac6bd9c92)" style="fill: none; stroke: #424242; stroke-width: 2.7; stroke-linecap: round"/>
   </g>
   <g id="line2d_60">
    <path d="M 843.166753 328.537213 
" clip-path="url(#p7ac6bd9c92)" style="fill: none; stroke: #424242; stroke-width: 2.7; stroke-linecap: round"/>
   </g>
   <g id="line2d_61">
    <path d="M 924.33039 347.830889 
L 924.33039 316.735889 
" clip-path="url(#p7ac6bd9c92)" style="fill: none; stroke: #424242; stroke-width: 2.7; stroke-linecap: round"/>
   </g>
   <g id="line2d_62">
    <path d="M 1005.494026 336.297782 
L 1005.494026 297.452443 
" clip-path="url(#p7ac6bd9c92)" style="fill: none; stroke: #424242; stroke-width: 2.7; stroke-linecap: round"/>
   </g>
   <g id="line2d_63">
    <path d="M 203.133506 483.653636 
L 203.133506 472.45525 
" clip-path="url(#p7ac6bd9c92)" style="fill: none; stroke: #424242; stroke-width: 2.7; stroke-linecap: round"/>
   </g>
   <g id="line2d_64">
    <path d="M 284.297143 428.67485 
L 284.297143 420.692595 
" clip-path="url(#p7ac6bd9c92)" style="fill: none; stroke: #424242; stroke-width: 2.7; stroke-linecap: round"/>
   </g>
   <g id="line2d_65">
    <path d="M 365.460779 411.319384 
L 365.460779 392.691163 
" clip-path="url(#p7ac6bd9c92)" style="fill: none; stroke: #424242; stroke-width: 2.7; stroke-linecap: round"/>
   </g>
   <g id="line2d_66">
    <path d="M 446.624416 414.335757 
L 446.624416 398.06696 
" clip-path="url(#p7ac6bd9c92)" style="fill: none; stroke: #424242; stroke-width: 2.7; stroke-linecap: round"/>
   </g>
   <g id="line2d_67">
    <path d="M 527.788052 455.643966 
L 527.788052 448.750978 
" clip-path="url(#p7ac6bd9c92)" style="fill: none; stroke: #424242; stroke-width: 2.7; stroke-linecap: round"/>
   </g>
   <g id="line2d_68">
    <path d="M 608.951688 373.617564 
L 608.951688 358.817886 
" clip-path="url(#p7ac6bd9c92)" style="fill: none; stroke: #424242; stroke-width: 2.7; stroke-linecap: round"/>
   </g>
   <g id="line2d_69">
    <path d="M 690.115325 405.757713 
L 690.115325 398.816946 
" clip-path="url(#p7ac6bd9c92)" style="fill: none; stroke: #424242; stroke-width: 2.7; stroke-linecap: round"/>
   </g>
   <g id="line2d_70">
    <path d="M 771.278961 428.96892 
L 771.278961 422.663437 
" clip-path="url(#p7ac6bd9c92)" style="fill: none; stroke: #424242; stroke-width: 2.7; stroke-linecap: round"/>
   </g>
   <g id="line2d_71">
    <path d="M 852.442597 335.463103 
L 852.442597 313.470104 
" clip-path="url(#p7ac6bd9c92)" style="fill: none; stroke: #424242; stroke-width: 2.7; stroke-linecap: round"/>
   </g>
   <g id="line2d_72">
    <path d="M 933.606234 323.573904 
L 933.606234 291.309501 
" clip-path="url(#p7ac6bd9c92)" style="fill: none; stroke: #424242; stroke-width: 2.7; stroke-linecap: round"/>
   </g>
   <g id="line2d_73">
    <path d="M 1014.76987 304.182582 
L 1014.76987 268.608931 
" clip-path="url(#p7ac6bd9c92)" style="fill: none; stroke: #424242; stroke-width: 2.7; stroke-linecap: round"/>
   </g>
   <g id="line2d_74">
    <path d="M 212.409351 423.81733 
L 212.409351 406.386671 
" clip-path="url(#p7ac6bd9c92)" style="fill: none; stroke: #424242; stroke-width: 2.7; stroke-linecap: round"/>
   </g>
   <g id="line2d_75">
    <path d="M 293.572987 365.59427 
L 293.572987 354.570673 
" clip-path="url(#p7ac6bd9c92)" style="fill: none; stroke: #424242; stroke-width: 2.7; stroke-linecap: round"/>
   </g>
   <g id="line2d_76">
    <path d="M 374.736623 352.727711 
L 374.736623 332.159234 
" clip-path="url(#p7ac6bd9c92)" style="fill: none; stroke: #424242; stroke-width: 2.7; stroke-linecap: round"/>
   </g>
   <g id="line2d_77">
    <path d="M 455.90026 363.853152 
L 455.90026 344.412788 
" clip-path="url(#p7ac6bd9c92)" style="fill: none; stroke: #424242; stroke-width: 2.7; stroke-linecap: round"/>
   </g>
   <g id="line2d_78">
    <path d="M 537.063896 389.298667 
L 537.063896 379.133009 
" clip-path="url(#p7ac6bd9c92)" style="fill: none; stroke: #424242; stroke-width: 2.7; stroke-linecap: round"/>
   </g>
   <g id="line2d_79">
    <path d="M 618.227532 337.352398 
L 618.227532 322.038881 
" clip-path="url(#p7ac6bd9c92)" style="fill: none; stroke: #424242; stroke-width: 2.7; stroke-linecap: round"/>
   </g>
   <g id="line2d_80">
    <path d="M 699.391169 336.368302 
L 699.391169 326.529872 
" clip-path="url(#p7ac6bd9c92)" style="fill: none; stroke: #424242; stroke-width: 2.7; stroke-linecap: round"/>
   </g>
   <g id="line2d_81">
    <path d="M 780.554805 361.454139 
L 780.554805 350.775 
" clip-path="url(#p7ac6bd9c92)" style="fill: none; stroke: #424242; stroke-width: 2.7; stroke-linecap: round"/>
   </g>
   <g id="line2d_82">
    <path d="M 861.718442 320.197848 
L 861.718442 297.66666 
" clip-path="url(#p7ac6bd9c92)" style="fill: none; stroke: #424242; stroke-width: 2.7; stroke-linecap: round"/>
   </g>
   <g id="line2d_83">
    <path d="M 942.882078 313.224129 
" clip-path="url(#p7ac6bd9c92)" style="fill: none; stroke: #424242; stroke-width: 2.7; stroke-linecap: round"/>
   </g>
   <g id="line2d_84">
    <path d="M 1024.045714 278.764512 
L 1024.045714 246.772944 
" clip-path="url(#p7ac6bd9c92)" style="fill: none; stroke: #424242; stroke-width: 2.7; stroke-linecap: round"/>
   </g>
   <g id="patch_80">
    <path d="M 144 504 
L 144 69.12 
" style="fill: none; stroke: #ffffff; stroke-width: 0.8; stroke-linejoin: miter; stroke-linecap: square"/>
   </g>
   <g id="patch_81">
    <path d="M 1036.8 504 
L 1036.8 69.12 
" style="fill: none; stroke: #ffffff; stroke-width: 0.8; stroke-linejoin: miter; stroke-linecap: square"/>
   </g>
   <g id="patch_82">
    <path d="M 144 504 
L 1036.8 504 
" style="fill: none; stroke: #ffffff; stroke-width: 0.8; stroke-linejoin: miter; stroke-linecap: square"/>
   </g>
   <g id="patch_83">
    <path d="M 144 69.12 
L 1036.8 69.12 
" style="fill: none; stroke: #ffffff; stroke-width: 0.8; stroke-linejoin: miter; stroke-linecap: square"/>
   </g>
   <g id="text_21">
    <!-- Percentage of Car Hourly Utilization by City. -->
    <g style="fill: #262626" transform="translate(473.80125 63.12)scale(0.12 -0.12)">
     <defs>
      <path id="ArialMT-50" d="M 494 0 
L 494 4581 
L 2222 4581 
Q 2678 4581 2919 4538 
Q 3256 4481 3484 4323 
Q 3713 4166 3852 3881 
Q 3991 3597 3991 3256 
Q 3991 2672 3619 2267 
Q 3247 1863 2275 1863 
L 1100 1863 
L 1100 0 
L 494 0 
z
M 1100 2403 
L 2284 2403 
Q 2872 2403 3119 2622 
Q 3366 2841 3366 3238 
Q 3366 3525 3220 3729 
Q 3075 3934 2838 4000 
Q 2684 4041 2272 4041 
L 1100 4041 
L 1100 2403 
z
" transform="scale(0.015625)"/>
      <path id="ArialMT-66" d="M 556 0 
L 556 2881 
L 59 2881 
L 59 3319 
L 556 3319 
L 556 3672 
Q 556 4006 616 4169 
Q 697 4388 901 4523 
Q 1106 4659 1475 4659 
Q 1713 4659 2000 4603 
L 1916 4113 
Q 1741 4144 1584 4144 
Q 1328 4144 1222 4034 
Q 1116 3925 1116 3625 
L 1116 3319 
L 1763 3319 
L 1763 2881 
L 1116 2881 
L 1116 0 
L 556 0 
z
" transform="scale(0.015625)"/>
      <path id="ArialMT-48" d="M 513 0 
L 513 4581 
L 1119 4581 
L 1119 2700 
L 3500 2700 
L 3500 4581 
L 4106 4581 
L 4106 0 
L 3500 0 
L 3500 2159 
L 1119 2159 
L 1119 0 
L 513 0 
z
" transform="scale(0.015625)"/>
     </defs>
     <use xlink:href="#ArialMT-50"/>
     <use xlink:href="#ArialMT-65" x="66.699219"/>
     <use xlink:href="#ArialMT-72" x="122.314453"/>
     <use xlink:href="#ArialMT-63" x="155.615234"/>
     <use xlink:href="#ArialMT-65" x="205.615234"/>
     <use xlink:href="#ArialMT-6e" x="261.230469"/>
     <use xlink:href="#ArialMT-74" x="316.845703"/>
     <use xlink:href="#ArialMT-61" x="344.628906"/>
     <use xlink:href="#ArialMT-67" x="400.244141"/>
     <use xlink:href="#ArialMT-65" x="455.859375"/>
     <use xlink:href="#ArialMT-20" x="511.474609"/>
     <use xlink:href="#ArialMT-6f" x="539.257812"/>
     <use xlink:href="#ArialMT-66" x="594.873047"/>
     <use xlink:href="#ArialMT-20" x="622.65625"/>
     <use xlink:href="#ArialMT-43" x="650.439453"/>
     <use xlink:href="#ArialMT-61" x="722.65625"/>
     <use xlink:href="#ArialMT-72" x="778.271484"/>
     <use xlink:href="#ArialMT-20" x="811.572266"/>
     <use xlink:href="#ArialMT-48" x="839.355469"/>
     <use xlink:href="#ArialMT-6f" x="911.572266"/>
     <use xlink:href="#ArialMT-75" x="967.1875"/>
     <use xlink:href="#ArialMT-72" x="1022.802734"/>
     <use xlink:href="#ArialMT-6c" x="1056.103516"/>
     <use xlink:href="#ArialMT-79" x="1078.320312"/>
     <use xlink:href="#ArialMT-20" x="1128.320312"/>
     <use xlink:href="#ArialMT-55" x="1156.103516"/>
     <use xlink:href="#ArialMT-74" x="1228.320312"/>
     <use xlink:href="#ArialMT-69" x="1256.103516"/>
     <use xlink:href="#ArialMT-6c" x="1278.320312"/>
     <use xlink:href="#ArialMT-69" x="1300.537109"/>
     <use xlink:href="#ArialMT-7a" x="1322.753906"/>
     <use xlink:href="#ArialMT-61" x="1372.753906"/>
     <use xlink:href="#ArialMT-74" x="1428.369141"/>
     <use xlink:href="#ArialMT-69" x="1456.152344"/>
     <use xlink:href="#ArialMT-6f" x="1478.369141"/>
     <use xlink:href="#ArialMT-6e" x="1533.984375"/>
     <use xlink:href="#ArialMT-20" x="1589.599609"/>
     <use xlink:href="#ArialMT-62" x="1617.382812"/>
     <use xlink:href="#ArialMT-79" x="1672.998047"/>
     <use xlink:href="#ArialMT-20" x="1722.998047"/>
     <use xlink:href="#ArialMT-43" x="1750.78125"/>
     <use xlink:href="#ArialMT-69" x="1822.998047"/>
     <use xlink:href="#ArialMT-74" x="1845.214844"/>
     <use xlink:href="#ArialMT-79" x="1872.998047"/>
     <use xlink:href="#ArialMT-2e" x="1915.623047"/>
    </g>
   </g>
   <g id="legend_1">
    <g id="patch_84">
     <path d="M 151 190.2825 
L 203.385938 190.2825 
Q 205.385938 190.2825 205.385938 188.2825 
L 205.385938 76.12 
Q 205.385938 74.12 203.385938 74.12 
L 151 74.12 
Q 149 74.12 149 76.12 
L 149 188.2825 
Q 149 190.2825 151 190.2825 
z
" style="fill: #eaeaf2; opacity: 0.8; stroke: #cccccc; stroke-linejoin: miter"/>
    </g>
    <g id="text_22">
     <!-- dow -->
     <g style="fill: #262626" transform="translate(168.021094 85.277813)scale(0.1 -0.1)">
      <defs>
       <path id="ArialMT-77" d="M 1034 0 
L 19 3319 
L 600 3319 
L 1128 1403 
L 1325 691 
Q 1338 744 1497 1375 
L 2025 3319 
L 2603 3319 
L 3100 1394 
L 3266 759 
L 3456 1400 
L 4025 3319 
L 4572 3319 
L 3534 0 
L 2950 0 
L 2422 1988 
L 2294 2553 
L 1622 0 
L 1034 0 
z
" transform="scale(0.015625)"/>
      </defs>
      <use xlink:href="#ArialMT-64"/>
      <use xlink:href="#ArialMT-6f" x="55.615234"/>
      <use xlink:href="#ArialMT-77" x="111.230469"/>
     </g>
    </g>
    <g id="patch_85">
     <path d="M 153 99.423125 
L 173 99.423125 
L 173 92.423125 
L 153 92.423125 
z
" style="fill: #3274a1; stroke: #ffffff; stroke-linejoin: miter"/>
    </g>
    <g id="text_23">
     <!-- Sun -->
     <g style="fill: #262626" transform="translate(181 99.423125)scale(0.1 -0.1)">
      <use xlink:href="#ArialMT-53"/>
      <use xlink:href="#ArialMT-75" x="66.699219"/>
      <use xlink:href="#ArialMT-6e" x="122.314453"/>
     </g>
    </g>
    <g id="patch_86">
     <path d="M 153 113.568438 
L 173 113.568438 
L 173 106.568438 
L 153 106.568438 
z
" style="fill: #b5c8e1; stroke: #ffffff; stroke-linejoin: miter"/>
    </g>
    <g id="text_24">
     <!-- Mon -->
     <g style="fill: #262626" transform="translate(181 113.568438)scale(0.1 -0.1)">
      <use xlink:href="#ArialMT-4d"/>
      <use xlink:href="#ArialMT-6f" x="83.300781"/>
      <use xlink:href="#ArialMT-6e" x="138.916016"/>
     </g>
    </g>
    <g id="patch_87">
     <path d="M 153 127.71375 
L 173 127.71375 
L 173 120.71375 
L 153 120.71375 
z
" style="fill: #e1812c; stroke: #ffffff; stroke-linejoin: miter"/>
    </g>
    <g id="text_25">
     <!-- Tue -->
     <g style="fill: #262626" transform="translate(181 127.71375)scale(0.1 -0.1)">
      <use xlink:href="#ArialMT-54"/>
      <use xlink:href="#ArialMT-75" x="57.333984"/>
      <use xlink:href="#ArialMT-65" x="112.949219"/>
     </g>
    </g>
    <g id="patch_88">
     <path d="M 153 141.859063 
L 173 141.859063 
L 173 134.859063 
L 153 134.859063 
z
" style="fill: #eebb89; stroke: #ffffff; stroke-linejoin: miter"/>
    </g>
    <g id="text_26">
     <!-- Wen -->
     <g style="fill: #262626" transform="translate(181 141.859063)scale(0.1 -0.1)">
      <use xlink:href="#ArialMT-57"/>
      <use xlink:href="#ArialMT-65" x="92.634766"/>
      <use xlink:href="#ArialMT-6e" x="148.25"/>
     </g>
    </g>
    <g id="patch_89">
     <path d="M 153 156.004375 
L 173 156.004375 
L 173 149.004375 
L 153 149.004375 
z
" style="fill: #3a923a; stroke: #ffffff; stroke-linejoin: miter"/>
    </g>
    <g id="text_27">
     <!-- Thu -->
     <g style="fill: #262626" transform="translate(181 156.004375)scale(0.1 -0.1)">
      <use xlink:href="#ArialMT-54"/>
      <use xlink:href="#ArialMT-68" x="61.083984"/>
      <use xlink:href="#ArialMT-75" x="116.699219"/>
     </g>
    </g>
    <g id="patch_90">
     <path d="M 153 170.149688 
L 173 170.149688 
L 173 163.149688 
L 153 163.149688 
z
" style="fill: #9fd495; stroke: #ffffff; stroke-linejoin: miter"/>
    </g>
    <g id="text_28">
     <!-- Fri -->
     <g style="fill: #262626" transform="translate(181 170.149688)scale(0.1 -0.1)">
      <use xlink:href="#ArialMT-46"/>
      <use xlink:href="#ArialMT-72" x="61.083984"/>
      <use xlink:href="#ArialMT-69" x="94.384766"/>
     </g>
    </g>
    <g id="patch_91">
     <path d="M 153 184.295 
L 173 184.295 
L 173 177.295 
L 153 177.295 
z
" style="fill: #c03d3e; stroke: #ffffff; stroke-linejoin: miter"/>
    </g>
    <g id="text_29">
     <!-- Sat -->
     <g style="fill: #262626" transform="translate(181 184.295)scale(0.1 -0.1)">
      <use xlink:href="#ArialMT-53"/>
      <use xlink:href="#ArialMT-61" x="66.699219"/>
      <use xlink:href="#ArialMT-74" x="122.314453"/>
     </g>
    </g>
   </g>
  </g>
 </g>
 <defs>
  <clipPath id="p7ac6bd9c92">
   <rect x="144" y="69.12" width="892.8" height="434.88"/>
  </clipPath>
 </defs>
</svg>
